<?xml version="1.0" standalone="no"?>
<!DOCTYPE svg PUBLIC "-//W3C//DTD SVG 20010904//EN"
 "http://www.w3.org/TR/2001/REC-SVG-20010904/DTD/svg10.dtd">
<svg version="1.0" xmlns="http://www.w3.org/2000/svg"
 width="1920.000000pt" height="1080.000000pt" viewBox="0 0 1920.000000 1080.000000"
 preserveAspectRatio="xMidYMid meet">

<g transform="translate(0.000000,1080.000000) scale(0.100000,-0.100000)"
fill="#000000" stroke="none">
<path d="M0 9840 c0 -951 0 -960 20 -960 11 0 20 -5 20 -11 0 -6 -9 -9 -20 -6
-20 5 -20 0 -20 -4429 l0 -4434 8833 1 c5941 0 8827 3 8817 10 -92 62 -1205
757 -1208 755 -2 -2 -14 6 -26 18 -13 11 -50 37 -82 57 -140 87 -404 251 -589
369 -110 69 -245 154 -300 189 -55 34 -176 111 -270 170 -93 59 -251 158 -350
220 -99 63 -202 128 -230 146 -203 130 -293 185 -303 185 -6 0 -12 3 -14 8 -2
4 -43 33 -92 65 -66 42 -92 54 -98 45 -5 -9 -8 -8 -8 5 0 10 -4 16 -9 13 -5
-3 -11 0 -14 8 -3 7 -70 54 -149 103 -79 49 -264 166 -413 260 -148 93 -369
232 -490 308 -209 131 -398 251 -475 300 -19 12 -98 62 -175 110 -77 47 -146
92 -153 100 -12 10 -4 19 42 51 31 22 56 45 56 52 0 6 5 12 12 12 7 0 38 26
70 57 32 31 60 54 64 51 3 -4 -17 -41 -45 -82 -65 -96 -69 -105 -39 -99 15 3
37 27 63 68 135 214 236 366 275 412 25 29 56 74 70 100 14 27 30 53 36 58 6
6 46 60 90 120 43 61 87 116 97 124 10 7 16 19 13 27 -3 8 0 14 7 14 15 0 53
60 49 77 -2 7 5 13 14 13 11 0 15 6 11 20 -3 13 0 20 9 20 8 0 15 5 15 10 1 6
2 14 3 20 0 5 9 15 19 22 9 7 19 24 22 38 3 14 10 27 16 29 6 2 19 20 28 40
28 59 75 130 87 131 10 0 31 35 32 54 0 5 4 12 9 15 15 11 45 63 39 68 -3 3 3
13 13 22 24 21 111 187 103 196 -4 3 -2 9 4 13 18 13 45 62 39 72 -3 6 -2 10
2 10 5 0 17 14 26 30 10 17 15 30 12 30 -3 0 3 10 14 22 19 20 42 72 40 92 0
5 4 12 9 15 12 7 85 171 79 177 -2 2 10 34 28 71 l32 67 -21 19 c-12 10 -15
15 -7 11 11 -6 13 -3 7 12 -4 10 -4 15 0 11 4 -4 13 1 21 11 8 9 12 11 8 5 -3
-7 -2 -13 3 -13 6 0 13 12 16 28 4 15 9 35 12 44 3 10 -2 18 -13 21 -12 3 -9
5 8 6 16 1 29 8 33 19 3 9 9 24 12 32 5 11 3 11 -7 -1 -8 -10 -25 -20 -37 -24
-22 -6 -23 -5 -12 14 6 12 8 25 6 30 -3 5 5 12 19 15 27 7 35 40 13 49 -7 3
-3 6 9 6 19 1 21 4 13 31 -5 19 -5 28 1 25 5 -4 9 -15 9 -26 0 -10 5 -19 10
-19 6 0 3 -11 -6 -25 -8 -13 -14 -32 -11 -42 4 -15 5 -14 6 3 0 12 8 27 16 34
16 14 21 70 6 70 -5 0 -8 12 -6 28 2 15 4 33 4 40 1 6 10 12 21 12 19 0 61 52
59 75 0 6 -8 -5 -16 -23 -13 -25 -23 -32 -45 -32 -15 0 -28 4 -28 9 0 5 8 8
18 7 12 -1 17 6 17 23 0 13 11 32 24 42 13 10 20 19 17 19 -4 0 4 15 18 33 19
24 23 36 15 44 -14 14 -48 3 -184 -62 -121 -56 -192 -85 -225 -92 -13 -2 -31
-9 -38 -15 -14 -12 -354 -161 -409 -180 -18 -6 -33 -15 -33 -19 0 -4 -15 -11
-32 -14 -18 -4 -35 -11 -38 -16 -3 -4 -54 -30 -113 -58 -59 -28 -105 -46 -102
-41 9 15 -12 12 -46 -5 -16 -9 -27 -20 -24 -24 5 -9 -107 -55 -135 -57 -30 -1
-90 -35 -90 -50 0 -9 -5 -12 -11 -8 -6 3 -14 2 -18 -3 -10 -16 -91 -54 -91
-43 0 6 -9 5 -25 -2 -17 -7 -21 -14 -14 -19 7 -4 3 -10 -12 -14 -13 -5 -25 -6
-25 -4 -1 2 -10 -3 -20 -12 -26 -23 -68 -44 -60 -30 5 7 1 9 -11 5 -10 -3 -25
-8 -33 -10 -9 -3 -11 -8 -4 -12 6 -4 -25 -24 -68 -44 -43 -21 -76 -33 -73 -28
8 12 8 12 -39 -4 -24 -8 -34 -16 -27 -21 15 -9 -32 -36 -57 -32 -27 3 -152
-56 -147 -70 5 -15 -11 -27 -20 -14 -7 12 -308 -140 -347 -174 -15 -14 -34
-22 -42 -19 -17 7 -222 -102 -218 -116 1 -5 -5 -10 -13 -10 -8 0 -15 -5 -15
-12 0 -9 -3 -9 -12 0 -14 14 -52 -4 -42 -20 5 -8 1 -9 -10 -5 -21 8 -93 -26
-121 -58 -24 -27 -280 -159 -310 -160 -11 0 -19 -6 -17 -12 2 -13 -9 -17 -39
-14 -8 1 -27 -9 -40 -23 -32 -32 -120 -76 -151 -76 -27 0 -68 -33 -68 -55 0
-8 -2 -15 -6 -15 -8 0 -119 69 -193 119 -59 40 -63 45 -46 57 10 7 23 11 28 7
6 -4 8 0 4 11 -4 11 1 29 13 46 11 15 16 31 12 35 -4 5 -1 5 6 1 7 -4 9 -13 5
-19 -4 -7 4 -5 17 4 34 22 41 45 9 29 -36 -19 -12 2 58 48 35 23 67 42 73 42
5 0 10 5 10 10 0 6 8 10 19 10 10 0 35 11 55 25 20 14 41 25 46 25 6 0 10 6
10 13 0 15 82 66 155 97 27 12 52 25 55 29 3 5 25 18 50 30 25 11 60 30 77 42
18 11 39 22 46 23 7 1 26 10 42 21 17 11 47 28 68 38 76 35 107 52 107 57 0 3
14 12 32 19 18 8 50 27 73 42 36 24 705 362 865 437 36 16 101 47 145 67 129
60 165 75 186 75 10 0 19 4 19 9 0 5 24 19 53 31 28 12 123 54 210 92 87 39
168 71 180 72 27 3 234 94 414 182 72 35 139 64 147 64 9 0 16 5 16 10 0 6 7
10 15 10 8 0 15 4 15 10 0 5 7 7 15 4 8 -4 15 -2 15 3 0 13 45 33 74 33 46 0
399 173 498 243 72 51 145 132 145 158 0 29 25 79 39 79 15 0 16 3 19 63 1 20
10 45 19 55 19 22 21 61 4 63 -16 2 -9 3 -116 -15 -49 -8 -104 -13 -121 -12
-17 1 -31 -1 -31 -4 0 -3 -23 -7 -52 -8 -28 -1 -56 -6 -62 -10 -6 -5 -29 -10
-50 -11 -22 -1 -54 -8 -70 -16 -17 -7 -80 -23 -141 -35 -60 -12 -112 -23 -114
-26 -2 -2 -10 4 -18 14 -14 16 -14 16 -9 -2 6 -16 2 -18 -29 -13 -19 3 -37 2
-40 -2 -2 -5 -28 -11 -56 -13 -28 -3 -54 -10 -58 -16 -9 -14 -275 -92 -279
-81 -6 14 -30 10 -73 -12 -22 -11 -53 -22 -68 -24 -52 -6 -109 -28 -105 -39 2
-6 -29 -23 -73 -40 -223 -81 -266 -96 -273 -91 -4 3 -13 -2 -20 -10 -7 -8 -21
-15 -31 -15 -11 0 -19 -5 -19 -11 0 -5 -5 -7 -10 -4 -6 3 -17 -1 -25 -9 -9 -8
-21 -13 -29 -10 -13 5 -157 -56 -184 -78 -8 -7 -20 -13 -27 -14 -7 -1 -92 -41
-188 -89 -158 -77 -209 -113 -178 -123 12 -4 15 -112 4 -112 -9 0 -33 49 -33
67 0 7 5 13 10 13 14 0 12 26 -2 38 -9 7 -17 5 -28 -6 -13 -14 -13 -15 0 -10
12 4 14 -3 11 -38 -2 -29 1 -44 9 -44 6 0 8 -4 5 -10 -3 -5 -13 -10 -21 -10
-10 0 -14 12 -14 44 0 49 -16 68 -35 43 -7 -9 -15 -14 -18 -11 -6 6 -149 -68
-174 -90 -40 -35 -93 -69 -100 -63 -2 3 -13 -2 -23 -11 -37 -34 -48 -41 -54
-35 -3 4 -6 1 -6 -5 0 -16 -58 -45 -76 -38 -8 3 -14 -1 -14 -9 0 -13 -260
-175 -281 -175 -6 0 -23 -10 -39 -21 -16 -12 -39 -23 -52 -24 -37 -4 -38 -4
-38 -20 0 -8 -15 -21 -32 -28 -18 -8 -39 -21 -47 -30 -7 -10 -18 -17 -23 -17
-15 0 -177 -101 -186 -115 -4 -7 -27 -21 -52 -32 -61 -27 -340 -209 -340 -222
0 -6 -12 -14 -27 -17 -30 -7 -110 -51 -131 -71 -7 -7 -20 -13 -27 -13 -7 0
-16 -8 -18 -17 -4 -17 -5 -17 -6 0 -2 25 -17 21 -54 -13 -17 -17 -88 -67 -155
-111 -68 -44 -122 -82 -120 -83 35 -31 363 -224 371 -219 7 3 9 3 5 -2 -4 -4
-4 -13 2 -20 6 -8 -32 -36 -128 -94 -180 -110 -743 -484 -736 -490 2 -3 10 1
16 7 16 16 41 15 33 0 -4 -7 0 -5 8 4 8 10 17 15 20 12 3 -3 18 2 34 11 40 24
15 5 -134 -105 -68 -50 -127 -99 -132 -109 -11 -19 12 -29 369 -158 231 -84
646 -205 710 -207 19 -1 38 -5 41 -10 8 -10 193 -48 339 -70 261 -39 589 -37
750 4 100 25 234 80 340 138 93 51 99 53 118 39 9 -7 11 -6 6 7 -7 19 9 21 25
3 8 -10 7 -17 -1 -25 -9 -9 -9 -12 -1 -12 21 0 25 21 9 39 -16 17 -16 19 1 25
11 5 23 0 33 -15 l17 -21 44 28 c24 15 38 20 31 11 -11 -13 -10 -17 5 -26 16
-9 16 -10 -5 -11 -13 0 -20 4 -17 10 3 5 3 10 -2 10 -4 0 -13 -11 -20 -25 -10
-23 -9 -25 17 -25 16 0 36 8 46 17 16 16 16 16 9 -6 -5 -17 -4 -21 5 -16 9 5
10 1 5 -15 -5 -15 -3 -20 3 -16 6 3 13 2 16 -3 4 -5 2 -12 -4 -16 -19 -12 -10
-22 20 -21 24 1 30 5 30 25 0 17 -4 22 -16 17 -8 -3 -13 -2 -10 3 3 5 -1 12
-10 15 -9 4 -14 9 -11 12 3 3 14 1 25 -5 18 -9 21 -8 24 12 3 12 6 -8 9 -46
l4 -67 -27 0 c-16 0 -28 -4 -28 -10 0 -5 14 -10 31 -10 18 0 28 -4 24 -10 -4
-6 -1 -18 6 -26 6 -8 10 -16 8 -17 -156 -115 -315 -195 -474 -238 -39 -11 -54
-17 -32 -15 28 4 37 1 37 -10 0 -8 5 -12 10 -9 5 3 10 1 10 -5 0 -6 5 -8 12
-4 7 4 8 3 4 -4 -4 -6 2 -29 13 -50 11 -22 17 -42 14 -46 -4 -3 -2 -6 4 -6 12
0 35 -48 28 -60 -3 -4 2 -14 11 -21 11 -9 14 -22 10 -41 -3 -18 -2 -27 4 -23
6 3 10 -1 10 -9 0 -10 9 -16 23 -17 12 -1 -12 -10 -53 -20 -207 -53 -665 4
-1285 157 -147 37 -513 141 -529 152 -6 3 -22 7 -35 8 -14 2 -27 8 -29 13 -2
5 -10 7 -18 4 -8 -3 -14 -1 -14 3 0 5 -11 10 -25 10 -25 2 -48 20 -53 42 -1 6
2 12 8 12 5 0 10 -6 10 -13 0 -7 9 -13 20 -13 27 0 26 25 -2 35 -15 5 -18 10
-9 15 7 5 18 3 24 -3 6 -6 15 -11 19 -11 12 0 6 33 -7 43 -6 5 -1 6 10 4 11
-2 19 -9 17 -15 -1 -7 5 -12 13 -12 18 0 19 5 3 29 -9 15 -9 23 1 35 14 17 31
13 31 -7 0 -7 -4 -6 -10 3 -5 8 -10 10 -10 4 0 -6 6 -17 14 -23 11 -10 16 -8
21 8 3 12 3 26 -1 32 -4 7 0 9 12 5 77 -24 237 -66 241 -63 2 2 -23 12 -54 20
-115 33 -630 206 -729 245 -119 48 -490 228 -499 242 -3 6 -36 9 -73 8 l-67
-2 58 -3 c31 -2 57 -8 57 -13 0 -6 6 -9 13 -8 6 2 11 -2 10 -9 -2 -7 7 -17 18
-24 15 -8 19 -8 15 0 -4 6 -5 11 -1 11 3 0 10 -10 15 -22 7 -18 9 -19 9 -5 1
24 21 22 21 -2 0 -11 9 -22 20 -26 11 -3 19 -9 19 -13 -3 -20 15 -50 26 -46
17 7 45 -23 45 -47 0 -13 5 -18 13 -14 6 3 2 -2 -10 -11 -13 -9 -23 -26 -23
-38 0 -22 -51 -62 -63 -49 -4 3 -17 7 -30 8 -62 7 -579 246 -690 319 l-27 19
59 43 c185 134 805 564 1116 773 198 133 361 246 363 251 2 5 -9 15 -25 23
-15 8 -71 42 -123 76 -52 33 -125 79 -161 101 -76 47 -87 75 -39 103 15 9 46
34 68 57 23 22 44 40 47 40 3 0 35 21 71 48 36 26 72 46 80 44 7 -1 18 7 24
19 10 17 9 20 -2 15 -7 -4 5 9 27 29 43 39 108 75 136 75 9 0 39 22 67 49 64
63 139 114 154 105 8 -5 9 -2 4 11 -6 16 -4 16 11 4 15 -12 16 -12 10 3 -4 13
-2 15 10 11 10 -4 14 -2 10 4 -7 11 76 73 96 73 5 0 41 24 81 53 39 30 105 77
146 105 190 130 235 163 238 172 2 6 10 10 18 10 8 0 14 5 14 10 0 6 7 10 15
10 8 0 24 9 35 20 11 11 20 17 20 13 0 -5 6 -1 13 7 7 8 17 16 23 17 6 1 98
57 205 124 107 67 206 129 221 138 16 9 28 21 28 26 0 6 43 36 96 69 53 32 98
65 101 72 3 8 9 14 14 14 6 0 23 10 39 22 22 16 32 18 43 10 18 -16 173 77
169 101 -3 19 9 22 25 6 8 -8 43 6 130 52 65 35 127 67 138 70 29 9 349 170
355 179 7 10 68 41 77 38 10 -3 76 31 83 43 3 4 63 34 134 68 71 33 133 66
138 75 4 8 23 18 41 21 17 4 37 11 43 17 7 5 20 10 30 12 11 2 100 32 199 66
99 34 189 64 200 67 11 3 25 11 30 18 14 17 139 57 157 50 22 -9 208 48 278
85 9 4 31 11 50 15 19 4 40 11 45 15 6 4 56 22 113 39 83 26 102 35 102 51 0
28 -12 32 -123 36 -66 3 -104 9 -109 17 -11 18 -170 27 -163 9 3 -8 5 -16 5
-18 0 -3 32 -2 70 2 45 4 70 3 70 -4 0 -5 -10 -12 -22 -16 -35 -9 -130 -7
-124 3 3 5 -1 14 -10 21 -8 7 -13 18 -11 24 7 19 -171 13 -217 -7 -23 -10 -48
-14 -63 -11 -19 5 -24 3 -21 -7 5 -16 52 -24 76 -13 21 9 122 11 128 3 2 -3
26 -4 54 -1 32 3 50 1 50 -6 0 -18 -13 -21 -115 -33 -79 -8 -100 -8 -106 3 -6
8 -9 9 -9 2 0 -19 -72 -28 -85 -12 -14 19 -134 22 -250 8 -49 -6 -91 -12 -92
-14 -2 -2 -1 -10 2 -18 5 -13 19 -15 71 -10 35 2 64 1 64 -4 0 -9 -52 -15
-151 -18 -33 -1 -45 -5 -42 -13 8 -21 -14 -15 -38 10 -21 22 -21 22 -10 0 9
-19 8 -23 -11 -29 -32 -10 -121 -12 -133 -3 -11 8 -195 -31 -195 -42 0 -4 40
3 90 16 76 19 91 21 101 9 9 -11 9 -13 -2 -9 -16 6 -154 -28 -324 -80 -145
-44 -165 -48 -165 -34 0 8 -6 7 -17 -2 -15 -13 -15 -12 -4 8 6 13 16 23 22 23
6 0 3 7 -6 16 -13 14 -14 19 -3 25 8 5 17 3 23 -5 8 -10 19 -10 58 3 27 9 46
19 43 21 -2 3 12 6 32 6 20 1 60 8 87 17 28 8 72 22 100 30 27 8 51 20 53 27
5 13 5 13 -109 -6 -32 -5 -38 -3 -44 16 -4 14 -2 25 5 30 9 5 9 9 1 14 -21 13
-30 -3 -20 -37 11 -40 12 -37 -7 -37 -8 0 -20 14 -25 30 -6 17 -15 30 -20 30
-5 0 -3 -12 3 -26 10 -21 9 -27 -3 -34 -14 -10 -18 -5 -34 45 -5 16 -8 17 -15
5 -13 -20 -12 -33 0 -25 6 3 10 2 10 -4 0 -19 -23 -24 -32 -7 -10 17 -35 21
-57 7 -10 -7 -11 -13 -2 -30 7 -11 8 -21 4 -21 -5 0 -14 14 -20 30 -10 26 -43
43 -43 23 0 -5 -21 -9 -48 -10 -61 -3 -138 -27 -134 -41 1 -7 -4 -13 -10 -13
-37 -4 -55 -7 -70 -14 -11 -4 -18 -3 -18 4 0 7 -10 9 -27 6 -16 -3 -41 -8 -57
-10 -16 -3 -39 -13 -50 -23 -12 -11 -34 -22 -51 -26 -46 -10 -85 -27 -85 -37
0 -13 52 1 68 18 21 20 30 15 25 -14 -9 -54 -10 -55 -41 -39 -18 9 -33 11 -43
5 -15 -9 -7 -12 26 -10 14 1 11 -3 -10 -12 -16 -7 -29 -17 -27 -20 1 -4 0 -7
-3 -7 -3 1 -17 -8 -32 -19 -14 -12 -29 -18 -34 -15 -5 3 -12 -1 -15 -10 -3 -8
-11 -13 -17 -11 -21 8 -49 -22 -43 -43 6 -17 1 -22 -25 -27 -20 -5 -27 -10
-19 -15 18 -11 -16 -21 -46 -14 -17 4 -24 2 -22 -6 2 -6 -8 -16 -21 -21 -22
-9 -23 -8 -10 8 7 10 20 24 28 31 10 8 11 12 3 12 -10 0 -10 5 -2 20 9 17 8
20 -9 20 -14 0 -19 -5 -15 -15 9 -22 -14 -18 -26 5 -9 17 -7 22 15 30 15 6 31
10 37 10 5 0 24 6 41 14 18 8 54 19 80 26 26 7 45 15 42 18 -2 3 -35 -3 -72
-13 -49 -13 -68 -15 -71 -7 -6 19 -22 14 -22 -8 0 -11 -6 -20 -14 -20 -22 0
-30 19 -12 26 9 3 13 10 10 15 -3 5 4 9 15 9 20 0 37 17 27 27 -8 8 -120 -25
-124 -36 -2 -6 -9 -9 -15 -7 -7 1 -9 1 -4 -1 16 -9 6 -24 -12 -18 -22 7 -23
-17 -1 -38 7 -6 11 -7 8 -2 -10 19 25 43 50 34 27 -10 19 -33 -9 -26 -11 3
-17 1 -14 -3 3 -5 2 -10 -2 -13 -5 -2 -2 -2 4 -1 7 2 18 -5 25 -15 7 -10 22
-23 33 -29 11 -6 14 -12 8 -12 -7 0 -22 9 -33 20 -24 24 -27 24 -27 5 0 -8 4
-15 9 -15 4 0 8 -7 8 -15 0 -8 6 -15 14 -15 9 0 12 -7 9 -20 -3 -11 0 -20 6
-20 9 0 9 -5 1 -20 -7 -14 -7 -20 0 -20 5 0 10 -4 10 -10 0 -5 -9 -10 -21 -10
-12 0 -17 4 -13 11 5 8 1 8 -14 0 -29 -15 -37 -32 -21 -42 8 -5 15 -4 17 1 2
5 10 6 19 3 11 -4 14 -2 9 5 -5 8 -2 10 8 6 9 -3 16 -2 16 4 0 5 9 12 21 15
12 3 18 10 14 16 -3 6 -10 9 -15 6 -9 -6 -21 20 -13 29 24 23 52 -30 29 -55
-8 -9 -3 -10 24 -5 49 8 23 -7 -67 -40 -40 -14 -79 -24 -87 -21 -8 3 -17 19
-21 36 -5 23 -11 29 -28 28 -12 -1 -27 -8 -34 -17 -8 -10 -12 -11 -13 -3 0 7
-10 12 -22 10 -14 -1 -22 3 -20 11 3 16 -17 15 -48 -3 -14 -8 -29 -14 -35 -14
-5 0 7 9 28 20 20 11 37 24 37 30 0 6 -4 8 -8 5 -5 -3 -8 5 -7 17 3 33 -4 39
-28 22 -12 -8 -26 -15 -32 -15 -5 1 2 8 18 16 15 8 27 19 27 25 0 6 -4 7 -10
4 -5 -3 -7 0 -4 8 3 8 -2 21 -11 30 -9 10 -11 18 -5 22 13 8 3 25 -13 25 -7 0
-6 -4 3 -11 12 -9 11 -10 -7 -6 -13 3 -23 1 -23 -4 0 -4 -7 -5 -17 -2 -11 4
-14 3 -9 -5 5 -8 2 -10 -8 -6 -9 3 -16 1 -16 -5 0 -6 -6 -10 -12 -9 -7 2 -13
-4 -13 -12 0 -8 6 -14 13 -12 8 1 11 -2 8 -7 -8 -13 14 -61 28 -61 6 0 21 -27
34 -59 25 -66 26 -71 12 -71 -5 0 -15 18 -21 40 -7 21 -16 37 -20 34 -5 -3 7
-35 25 -73 l34 -67 -74 -37 c-41 -20 -80 -37 -88 -37 -7 0 -29 -13 -47 -30
-19 -16 -29 -30 -22 -30 11 0 180 85 231 117 13 8 26 12 29 10 3 -4 -218 -127
-277 -154 -3 -2 -12 15 -21 36 l-17 40 29 10 c18 6 27 6 24 1 -4 -6 -14 -10
-23 -11 -12 0 -10 -3 6 -10 18 -7 28 -4 45 13 16 15 17 19 5 15 -9 -3 -19 0
-22 8 -3 9 0 12 10 8 7 -3 14 0 14 7 0 6 5 8 11 5 6 -4 20 2 32 13 26 24 97
55 97 42 0 -5 9 -8 20 -7 13 1 19 6 15 15 -3 7 -5 16 -5 18 0 3 -4 2 -10 -1
-5 -3 -16 11 -25 31 -8 20 -18 35 -21 31 -3 -3 -1 -16 6 -29 11 -22 10 -22 -4
-4 -9 11 -14 28 -10 38 3 10 1 18 -5 18 -21 0 -22 -22 -3 -54 11 -19 18 -37
15 -40 -10 -10 -35 -7 -28 4 3 5 2 18 -4 27 -8 15 -9 12 -7 -13 4 -29 0 -32
-61 -63 -54 -27 -68 -30 -81 -19 -13 11 -15 10 -9 -4 4 -11 -3 -22 -20 -33
-15 -10 -22 -12 -18 -4 6 9 3 11 -9 6 -13 -5 -19 -1 -23 14 -4 13 -11 18 -22
15 -12 -5 -12 -3 2 8 15 12 17 18 7 35 -6 12 -8 27 -4 33 4 6 3 8 -3 5 -6 -4
-21 10 -34 31 l-22 37 -8 -29 c-9 -33 -3 -48 10 -27 6 8 11 9 15 3 3 -6 -4
-18 -16 -27 -21 -14 -24 -14 -36 2 -8 11 -9 19 -2 21 5 2 10 14 10 27 0 29 16
41 35 25 8 -6 18 -9 23 -6 5 3 22 -13 38 -37 31 -46 74 -94 74 -82 0 10 -33
69 -44 76 -4 4 -3 10 3 13 6 4 11 2 11 -3 0 -6 7 -11 15 -11 8 0 15 5 15 10 0
6 -4 10 -10 10 -5 0 -10 7 -10 16 0 15 -2 15 -23 1 -21 -14 -24 -13 -35 4 -7
11 -9 27 -3 41 l8 22 12 -23 c7 -12 15 -20 18 -18 2 3 0 14 -6 25 -10 18 -3
24 72 62 98 51 93 48 79 62 -9 9 -12 8 -12 -5 0 -12 -8 -17 -26 -17 -14 0 -23
-4 -20 -9 7 -11 -19 -22 -37 -15 -7 2 -23 -7 -35 -21 -12 -14 -25 -25 -29 -26
-5 0 -19 -2 -31 -3 -13 -2 -27 -9 -32 -16 -4 -7 -38 -27 -74 -45 -36 -17 -64
-34 -61 -36 2 -3 -5 -11 -17 -18 -16 -10 -19 -10 -13 1 4 7 -3 2 -14 -12 -18
-21 -20 -22 -15 -5 3 11 -2 7 -11 -9 -13 -21 -20 -25 -28 -17 -9 9 -18 5 -37
-16 -14 -16 -23 -24 -20 -18 3 6 -6 -1 -19 -15 -13 -14 -20 -18 -16 -10 4 8
-3 4 -16 -10 -13 -14 -22 -21 -19 -15 3 6 -2 3 -11 -7 -9 -9 -20 -14 -24 -10
-3 4 -5 1 -3 -7 2 -7 -11 -21 -29 -30 -18 -9 -37 -26 -44 -38 -6 -12 -23 -24
-36 -28 -14 -3 -23 -9 -19 -12 9 -9 -15 -34 -26 -27 -12 8 -55 -22 -103 -71
-72 -75 -206 -185 -217 -179 -6 4 -8 2 -5 -3 4 -6 -48 -58 -116 -115 -67 -58
-158 -141 -202 -185 -44 -44 -121 -116 -170 -160 -50 -44 -205 -194 -345 -332
-206 -203 -252 -253 -240 -261 8 -6 49 -31 90 -56 130 -79 128 -62 20 -162
-173 -158 -743 -708 -845 -813 -56 -57 -119 -129 -142 -159 -56 -75 -126 -207
-117 -221 4 -7 3 -9 -3 -6 -6 4 -14 0 -17 -9 -8 -21 -8 -26 2 -20 5 3 16 -8
25 -23 10 -18 32 -33 59 -41 65 -21 76 -20 70 3 -3 14 -1 18 6 13 7 -4 12 -14
12 -22 0 -19 16 -18 24 1 3 8 1 15 -3 15 -5 0 -7 8 -4 19 3 13 -2 20 -19 25
-13 4 -18 10 -11 12 7 3 11 11 9 17 -1 7 -1 9 1 4 3 -4 10 -4 16 0 7 4 8 0 3
-12 -5 -15 -4 -16 9 -5 10 8 15 9 15 1 0 -6 7 -11 15 -11 20 0 19 -10 -2 -40
-19 -26 -52 -162 -53 -215 -1 -107 291 -524 672 -958 23 -26 39 -49 36 -52 -4
-5 -172 82 -234 121 -136 86 -375 292 -464 400 -69 83 -145 191 -188 269 -19
33 -31 51 -28 41 5 -14 3 -16 -6 -9 -23 19 -125 36 -133 22 -9 -14 17 -22 27
-8 8 12 9 11 5 -1 -2 -9 -16 -15 -33 -16 -36 -1 -95 57 -173 172 -30 43 -61
83 -68 87 -7 4 -13 13 -13 19 0 5 -21 44 -47 86 -27 42 -61 101 -78 133 -16
32 -60 103 -97 159 -38 55 -68 105 -68 110 0 8 -75 150 -147 278 -13 23 -28
42 -34 42 -6 0 -7 4 -4 10 3 5 -25 67 -63 137 -75 139 -153 291 -151 295 1 2
-8 23 -20 46 -12 24 -20 46 -18 49 6 6 107 -45 324 -163 466 -254 721 -364
882 -380 l60 -7 228 220 c125 121 324 309 440 418 117 109 212 199 210 200 -1
1 -51 33 -112 70 -60 38 -436 274 -835 525 -953 599 -954 600 -972 600 -24 0
-128 63 -124 75 3 10 -22 29 -96 74 l-37 22 -21 -41 c-11 -22 -25 -38 -30 -35
-6 4 -1 23 11 47 11 22 17 44 12 48 -4 4 -289 184 -633 400 -344 216 -929 585
-1300 819 -371 233 -1192 750 -1825 1147 -632 397 -1166 732 -1185 745 -19 12
-212 134 -428 271 l-394 248 -254 0 -254 0 0 -960z m1344 395 c26 -20 12 -37
-19 -23 -26 11 -30 20 -18 31 9 10 15 8 37 -8z m-309 -93 c-3 -3 -11 0 -18 7
-9 10 -8 11 6 5 10 -3 15 -9 12 -12z m95 -52 c0 -5 -5 -10 -11 -10 -5 0 -7 5
-4 10 3 6 8 10 11 10 2 0 4 -4 4 -10z m-340 -50 c0 -5 -4 -10 -10 -10 -5 0
-10 5 -10 10 0 6 5 10 10 10 6 0 10 -4 10 -10z m290 -24 c0 -3 -4 -8 -10 -11
-5 -3 -10 -1 -10 4 0 6 5 11 10 11 6 0 10 -2 10 -4z m-363 -362 c-9 -9 -28 6
-21 18 4 6 10 6 17 -1 6 -6 8 -13 4 -17z m-51 -101 c-10 -10 -19 5 -10 18 6
11 8 11 12 0 2 -7 1 -15 -2 -18z m-411 -145 c30 -13 33 -34 5 -41 -13 -3 -20
0 -20 9 0 8 -4 14 -10 14 -5 0 -10 7 -10 15 0 18 2 18 35 3z m-35 -63 c29 -15
36 -26 24 -37 -9 -10 -64 23 -64 38 0 18 4 18 40 -1z m1830 -35 c0 -5 -5 -10
-11 -10 -5 0 -7 5 -4 10 3 6 8 10 11 10 2 0 4 -4 4 -10z m-1680 -14 c0 -21
-21 -31 -31 -15 -14 22 -11 29 11 29 11 0 20 -6 20 -14z m-92 -15 c21 -17 30
-41 16 -41 -15 0 -64 42 -59 51 9 13 19 11 43 -10z m-168 -91 c0 -5 -4 -10
-10 -10 -5 0 -10 5 -10 10 0 6 5 10 10 10 6 0 10 -4 10 -10z m320 0 c0 -5 7
-10 15 -10 17 0 20 -16 5 -25 -5 -3 -10 -1 -10 4 0 6 -9 11 -20 11 -11 0 -20
7 -20 15 0 8 7 15 15 15 8 0 15 -4 15 -10z m-215 -14 c34 -14 42 -26 29 -39
-7 -7 -74 34 -74 46 0 10 6 9 45 -7z m97 -54 c9 -9 9 -15 1 -23 -13 -13 -67
17 -57 32 7 11 41 6 56 -9z m188 -54 c0 -10 -13 -10 -34 -2 -9 3 -16 12 -16
19 0 10 5 11 25 2 14 -7 25 -15 25 -19z m-390 -137 c0 -6 -4 -13 -10 -16 -5
-3 -10 1 -10 9 0 9 5 16 10 16 6 0 10 -4 10 -9z m-40 -81 c0 -5 -4 -10 -10
-10 -5 0 -10 5 -10 10 0 6 5 10 10 10 6 0 10 -4 10 -10z m-25 -70 c-21 -23
-35 -26 -35 -6 0 15 14 24 39 25 11 1 10 -4 -4 -19z m895 -59 c0 -16 -15 -14
-30 4 -17 20 -3 39 16 21 8 -8 14 -19 14 -25z m-15 -32 c-4 -5 -14 -5 -26 1
-11 6 -17 15 -14 21 4 5 14 5 26 -1 11 -6 17 -15 14 -21z m-811 -204 c3 -8 12
-15 21 -15 8 0 15 -7 15 -15 0 -8 -2 -15 -5 -15 -8 0 -55 47 -55 55 0 11 18 4
24 -10z m636 8 c0 -2 -6 -13 -12 -26 -7 -12 -13 -23 -14 -25 -1 -1 -9 0 -18 4
-18 7 -22 34 -5 34 5 0 7 4 4 10 -4 6 5 9 19 8 15 -1 26 -4 26 -5z m100 -63
c8 -5 12 -12 8 -15 -10 -10 -49 5 -43 16 8 11 16 11 35 -1z m-15 -31 c4 -6 5
-12 2 -15 -7 -7 -37 7 -37 17 0 13 27 11 35 -2z m-745 -36 c0 -7 -4 -13 -10
-13 -5 0 -10 5 -10 10 0 6 -7 10 -15 10 -15 0 -20 12 -9 23 9 9 44 -16 44 -30z
m887 2 c-2 -5 -12 -10 -22 -10 -10 0 -20 5 -22 10 -1 6 8 10 22 10 14 0 24 -4
22 -10z m-28 -24 c8 -5 9 -11 3 -15 -13 -8 -42 3 -42 15 0 11 21 11 39 0z
m134 -47 c-4 -10 -10 -11 -24 -3 -27 14 -24 27 5 22 16 -3 23 -10 19 -19z
m-24 -17 c6 -8 8 -17 5 -20 -10 -9 -45 13 -39 24 9 13 21 11 34 -4z m11961
-268 c0 -5 14 -9 32 -9 23 0 29 -3 21 -11 -13 -13 -80 -2 -86 15 -3 7 4 13 14
13 10 1 19 -2 19 -8z m-67 -20 l22 -20 -30 7 c-16 3 -37 13 -45 20 -12 12 -11
14 8 14 13 0 33 -9 45 -21z m-854 -80 c-9 -5 -16 -3 -20 9 -8 22 13 36 25 15
5 -10 4 -18 -5 -24z m-85 5 c10 -25 1 -27 -19 -4 -15 17 -16 20 -3 20 9 0 19
-7 22 -16z m96 -48 c0 -2 -11 -6 -25 -8 -14 -3 -25 -1 -25 3 0 5 11 9 25 9 14
0 25 -2 25 -4z m-525 -56 c-10 -11 -20 -18 -23 -15 -7 6 18 35 31 35 5 0 2 -9
-8 -20z m-240 -180 c-3 -5 -10 -10 -16 -10 -5 0 -9 5 -9 10 0 6 7 10 16 10 8
0 12 -4 9 -10z m-545 -50 c-8 -5 -19 -10 -25 -10 -5 0 -3 5 5 10 8 5 20 10 25
10 6 0 3 -5 -5 -10z m10 -25 c-14 -8 -32 -14 -40 -14 -8 0 -1 6 15 14 40 18
57 18 25 0z m495 -5 c-3 -5 -14 -10 -23 -10 -15 0 -15 2 -2 10 20 13 33 13 25
0z m-475 -15 c-14 -8 -29 -14 -35 -14 -5 0 1 6 15 14 14 8 30 14 35 14 6 0 -1
-6 -15 -14z m427 -1 c-3 -3 -12 -4 -19 -1 -8 3 -5 6 6 6 11 1 17 -2 13 -5z
m133 -18 c0 -2 -7 -7 -16 -10 -8 -3 -12 -2 -9 4 6 10 25 14 25 6z m-511 -40
c-2 -2 -15 -9 -29 -15 -24 -11 -24 -11 -6 3 16 13 49 24 35 12z m-411 -40 c-7
-8 -15 -12 -17 -11 -5 6 10 25 20 25 5 0 4 -6 -3 -14z m-8098 -60 c0 -3 -4 -8
-10 -11 -5 -3 -10 -1 -10 4 0 6 5 11 10 11 6 0 10 -2 10 -4z m-60 -58 c0 -13
-23 -5 -28 10 -2 7 2 10 12 6 9 -3 16 -11 16 -16z m-1554 -12 c10 -8 16 -17
13 -21 -8 -7 -59 15 -59 27 0 13 24 10 46 -6z m9703 -2 c-14 -18 -49 -24 -49
-10 0 19 10 26 36 24 16 -2 20 -6 13 -14z m-8114 -4 c3 -5 1 -10 -4 -10 -6 0
-11 5 -11 10 0 6 2 10 4 10 3 0 8 -4 11 -10z m8135 -5 c0 -2 -23 -16 -50 -30
-32 -16 -49 -21 -48 -13 2 7 -5 12 -16 11 -13 -1 -15 2 -7 10 7 7 14 7 25 -2
12 -10 22 -8 53 8 43 23 43 23 43 16z m-43 -52 c-4 -3 -2 -12 4 -20 9 -10 8
-13 -5 -13 -10 0 -14 5 -11 10 10 16 -5 12 -41 -11 -19 -11 -34 -18 -34 -15 0
3 19 16 43 30 42 26 56 32 44 19z m37 -8 c-4 -8 -11 -12 -16 -9 -6 4 -5 10 3
15 19 12 19 11 13 -6z m-4374 -5 c0 -5 -5 -10 -11 -10 -5 0 -7 5 -4 10 3 6 8
10 11 10 2 0 4 -4 4 -10z m4225 -19 c3 -5 1 -12 -5 -16 -5 -3 -10 1 -10 9 0
18 6 21 15 7z m-4245 -21 c0 -5 -2 -10 -4 -10 -3 0 -8 5 -11 10 -3 6 -1 10 4
10 6 0 11 -4 11 -10z m4468 -8 c2 -8 -3 -10 -15 -5 -16 6 -16 5 -4 -10 7 -9
19 -17 26 -17 19 0 26 -27 9 -34 -8 -3 -72 -43 -142 -89 -153 -100 -152 -99
-152 -94 0 3 25 22 55 42 30 21 55 42 55 45 0 4 13 13 30 20 16 7 28 17 27 24
-1 6 8 10 21 9 15 -2 22 2 20 11 -2 8 10 26 26 41 26 24 28 28 13 37 -10 5
-23 6 -30 3 -6 -4 -1 3 13 14 26 22 41 23 48 3z m-85 -47 c-3 -9 -8 -14 -10
-11 -3 3 -2 9 2 15 9 16 15 13 8 -4z m-8269 -136 c9 -73 1 -91 -8 -22 -4 26
-9 56 -12 66 -3 9 -1 17 4 17 5 0 13 -27 16 -61z m4282 -1 c31 -18 59 -39 62
-47 3 -10 -5 -9 -29 6 -19 11 -49 29 -66 39 -18 10 -33 22 -33 26 0 12 3 11
66 -24z m7635 -41 l-34 -32 29 37 c15 20 30 35 33 32 3 -2 -10 -19 -28 -37z
m-7494 -84 c45 -26 83 -51 83 -56 0 -11 3 -12 -98 43 -72 39 -98 60 -75 60 3
0 44 -21 90 -47z m3628 37 c-3 -5 -12 -10 -18 -10 -7 0 -6 4 3 10 19 12 23 12
15 0z m-4340 -12 c24 -11 34 -28 16 -28 -11 0 -59 39 -49 40 4 0 19 -5 33 -12z
m145 -33 c0 -8 -4 -15 -10 -15 -5 0 -10 7 -10 15 0 8 5 15 10 15 6 0 10 -7 10
-15z m433 -92 c83 -48 146 -88 140 -90 -13 -5 -313 162 -313 173 0 13 38 -5
173 -83z m90 36 c78 -44 98 -59 79 -59 -17 0 -162 83 -162 93 0 12 7 9 83 -34z
m-557 -6 c-10 -10 -19 5 -10 18 6 11 8 11 12 0 2 -7 1 -15 -2 -18z m356 -10
c34 -20 57 -38 51 -40 -14 -5 -123 55 -123 68 0 13 4 12 72 -28z m-2917 -13
c3 -5 2 -10 -4 -10 -5 0 -13 5 -16 10 -3 6 -2 10 4 10 5 0 13 -4 16 -10z
m6545 -44 c0 -2 -8 -10 -17 -17 -16 -13 -17 -12 -4 4 13 16 21 21 21 13z
m-6445 -16 c3 -6 -1 -7 -9 -4 -18 7 -21 14 -7 14 6 0 13 -4 16 -10z m8595 -45
c-7 -8 -17 -12 -22 -9 -6 4 -5 10 3 15 22 14 33 10 19 -6z m-6465 -15 c4 -6
30 -22 58 -37 29 -14 46 -28 40 -30 -15 -5 -123 54 -123 68 0 12 17 12 25 -1z
m6471 -19 c-10 -11 -15 -25 -11 -30 3 -6 1 -11 -4 -11 -15 0 -14 33 1 48 20
20 32 13 14 -7z m-83 -3 c-34 -16 -29 -38 8 -38 27 0 30 -2 19 -15 -7 -9 -29
-15 -51 -15 -37 0 -39 2 -39 30 0 17 3 30 8 31 22 2 45 8 50 13 3 3 10 6 16 5
6 0 1 -5 -11 -11z m22 -18 c3 -5 1 -10 -4 -10 -6 0 -11 5 -11 10 0 6 2 10 4
10 3 0 8 -4 11 -10z m-6394 -32 c51 -28 73 -48 53 -48 -12 0 -124 65 -124 73
0 12 10 8 71 -25z m6298 0 c-1 -31 -1 -32 -9 -8 -7 22 -8 20 -9 -15 l-2 -40
-14 30 -13 30 -1 -27 c-1 -15 6 -32 17 -38 16 -11 16 -11 -2 -6 -14 5 -17 2
-13 -13 3 -14 1 -18 -9 -14 -9 3 -14 -1 -14 -12 0 -11 5 -15 15 -11 12 4 15
-4 15 -44 0 -43 -3 -50 -19 -50 -18 0 -20 9 -23 101 l-3 101 40 24 c22 13 41
24 43 24 1 0 2 -15 1 -32z m-99 -122 l0 -104 -29 -7 c-16 -3 -36 -14 -43 -23
-11 -15 -11 -15 3 -5 8 7 41 15 72 19 32 4 60 10 63 15 2 4 12 5 21 2 15 -6
15 -5 0 17 -9 14 -17 36 -16 50 l1 25 8 -25 c7 -21 15 -11 11 13 -1 5 4 5 10
1 7 -4 10 -25 7 -56 -4 -32 -1 -47 6 -45 6 2 9 22 7 45 -3 42 -2 42 31 41 31
-1 31 -1 8 -9 -20 -6 -15 -8 25 -10 41 -1 46 -3 27 -10 -12 -5 -29 -7 -37 -4
-8 4 -15 1 -15 -5 0 -6 5 -11 11 -11 5 0 7 -5 3 -12 -5 -8 -11 -5 -20 7 -19
26 -30 11 -16 -21 7 -14 8 -23 3 -20 -13 9 -41 -4 -41 -18 0 -8 11 -11 30 -8
25 4 29 1 24 -13 -5 -12 -9 -13 -14 -4 -14 21 -40 2 -40 -31 0 -32 1 -33 24
-24 21 8 20 21 -1 27 -14 4 -12 5 5 6 30 1 29 -26 -3 -41 -14 -6 -25 -18 -25
-25 0 -9 -8 -13 -22 -11 -21 3 -23 9 -23 55 0 29 -4 53 -9 53 -4 0 -6 6 -3 13
5 15 -13 19 -50 11 -21 -4 -23 -10 -23 -78 0 -54 -4 -75 -14 -79 -8 -3 -16 2
-19 15 -3 11 -10 17 -16 14 -5 -3 -12 2 -14 11 -3 10 -5 -1 -6 -25 -1 -52 -16
-69 -62 -74 l-34 -3 -1 45 c-1 39 -1 40 3 8 3 -30 8 -38 25 -38 17 0 18 2 8
15 -7 9 -15 54 -17 103 -2 48 -9 91 -14 97 -5 5 -9 33 -9 62 0 59 -5 56 122
68 52 5 57 4 51 -12 -4 -13 -3 -15 5 -8 6 6 9 21 5 33 -4 18 -11 22 -27 18
-11 -2 -48 -7 -81 -10 -52 -5 -56 -4 -30 5 17 7 39 18 50 25 11 8 33 14 50 13
29 -1 29 -1 5 -9 -24 -8 -24 -8 7 -9 26 -1 31 3 30 19 -1 11 -6 20 -12 20 -8
0 13 19 23 20 1 0 2 -47 2 -104z m-6709 58 c28 -14 49 -28 46 -30 -5 -5 -64
23 -97 45 -28 19 0 11 51 -15z m6806 -6 c-3 -7 -5 -2 -5 12 0 14 2 19 5 13 2
-7 2 -19 0 -25z m113 14 c0 -14 -66 -29 -77 -17 -8 9 -1 12 24 13 20 1 38 4
41 7 7 7 12 6 12 -3z m40 -2 c0 -5 -2 -10 -4 -10 -3 0 -8 5 -11 10 -3 6 -1 10
4 10 6 0 11 -4 11 -10z m-7020 -10 c0 -5 -4 -10 -10 -10 -5 0 -10 5 -10 10 0
6 5 10 10 10 6 0 10 -4 10 -10z m6977 -35 c-4 -10 -19 -15 -43 -15 -28 0 -35
-3 -30 -15 3 -8 1 -15 -4 -15 -6 0 -10 11 -10 25 0 17 4 23 14 19 8 -3 17 -1
21 5 3 6 11 11 16 11 6 0 7 -4 4 -10 -3 -5 -2 -10 3 -10 6 0 13 7 16 16 4 9 9
14 12 11 4 -3 4 -13 1 -22z m43 10 c0 -8 -2 -15 -4 -15 -2 0 -6 7 -10 15 -3 8
-1 15 4 15 6 0 10 -7 10 -15z m-7040 -5 c0 -5 -2 -10 -4 -10 -3 0 -8 5 -11 10
-3 6 -1 10 4 10 6 0 11 -4 11 -10z m6890 -10 c0 -5 -5 -10 -11 -10 -5 0 -7 5
-4 10 3 6 8 10 11 10 2 0 4 -4 4 -10z m-10003 -46 c-9 -9 -28 6 -21 18 4 6 10
6 17 -1 6 -6 8 -13 4 -17z m1263 -24 c0 -5 -4 -10 -10 -10 -5 0 -10 5 -10 10
0 6 5 10 10 10 6 0 10 -4 10 -10z m2343 -17 c29 -14 47 -28 40 -30 -13 -5 -88
31 -98 47 -9 15 1 12 58 -17z m6001 -25 c6 -36 6 -36 -31 -42 -109 -16 -133
-18 -133 -9 0 9 109 73 124 73 3 0 6 -10 7 -22 1 -17 3 -15 10 11 12 39 14 38
23 -11z m-4122 8 c7 4 8 2 4 -5 -9 -13 -26 -5 -25 12 0 9 2 8 6 -1 2 -6 10 -9
15 -6z m4650 -18 c-6 -6 -15 -7 -22 -3 -8 5 -6 11 7 20 20 15 32 0 15 -17z
m-6561 -15 c67 -36 62 -49 -6 -16 -30 15 -55 31 -55 35 0 13 9 10 61 -19z
m6553 -28 c-6 -16 -24 -21 -24 -7 0 11 11 22 21 22 5 0 6 -7 3 -15z m-436 -35
c-3 -24 -32 -49 -43 -38 -4 3 -9 21 -12 38 -4 29 -2 32 16 27 12 -3 21 0 21 6
0 8 3 8 11 0 6 -6 9 -21 7 -33z m22 -22 c0 -48 -3 -59 -12 -50 -7 7 -23 12
-37 11 l-26 -1 25 -7 c22 -6 25 -13 28 -59 2 -40 0 -52 -12 -52 -10 0 -13 9
-11 33 2 17 1 24 -1 15 -3 -10 -9 -18 -13 -18 -4 0 -8 -18 -9 -40 l-2 -40 73
6 c63 6 74 4 89 -13 16 -18 15 -63 -1 -63 -9 0 -443 -229 -459 -243 -10 -8
-16 -7 -22 2 -6 10 -10 7 -15 -10 l-8 -24 -8 23 c-11 29 -29 20 -29 -14 0 -13
-5 -24 -11 -24 -7 0 -9 10 -7 25 3 14 1 25 -4 25 -5 0 -6 5 -3 10 3 6 26 10
50 10 24 0 47 5 51 11 4 8 -14 9 -62 4 -92 -9 -104 -13 -104 -36 0 -15 -7 -19
-32 -20 -18 -1 -43 -3 -54 -4 -16 -2 -20 2 -17 16 5 19 -12 27 -19 9 -1 -5
-19 -11 -38 -12 -26 -2 -35 1 -35 12 0 8 10 16 23 18 15 2 22 9 18 17 -8 21
25 43 77 50 41 6 46 5 41 -9 -3 -9 -2 -16 4 -16 11 0 25 107 16 121 -3 6 -18
8 -33 4 -53 -14 -94 -17 -87 -6 4 5 13 8 21 4 8 -3 15 0 15 6 0 6 7 8 15 5 11
-5 15 1 15 20 0 28 -3 29 -38 20 -18 -5 -20 -9 -11 -20 8 -9 8 -14 1 -14 -6 0
-14 5 -17 10 -8 12 5 100 14 98 18 -3 39 15 34 30 -5 11 -2 14 10 9 11 -4 17
-1 17 7 0 8 7 16 15 20 12 4 15 -3 15 -35 0 -24 -4 -38 -10 -34 -5 3 -10 2
-10 -4 0 -5 6 -12 13 -14 8 -4 9 -8 1 -14 -6 -4 -14 -23 -17 -40 -6 -30 -4
-33 18 -33 24 0 25 3 26 68 0 37 4 85 8 107 5 24 7 -32 4 -140 -2 -99 -6 -187
-9 -195 -4 -12 -3 -13 8 -2 7 7 14 44 16 90 8 185 15 262 23 262 5 0 9 11 9
23 0 31 9 39 26 22 8 -8 22 -12 32 -9 14 5 14 4 3 -4 -8 -6 -20 -8 -28 -5 -15
6 -18 -18 -2 -34 5 -5 21 -8 34 -6 20 4 23 11 23 50 0 32 6 49 19 58 10 8 14
15 9 15 -11 0 14 30 25 30 18 0 9 -42 -11 -47 -40 -10 -8 -22 47 -17 68 6 68
5 72 47 1 15 41 21 41 6 0 -5 -7 -9 -15 -9 -19 0 -19 -14 -1 -30 12 -9 17 -8
28 9 9 15 15 17 26 9 16 -14 122 -11 139 4 7 6 13 26 13 44 0 19 2 34 5 34 3
0 5 -28 5 -62z m200 31 c0 -11 -4 -17 -10 -14 -5 3 -10 13 -10 21 0 8 5 14 10
14 6 0 10 -9 10 -21z m30 -56 c0 -29 -4 -53 -10 -53 -5 0 -7 6 -4 14 3 8 1 16
-3 19 -5 3 -10 -17 -11 -45 -2 -81 -12 -69 -12 15 0 45 4 77 10 77 6 0 10 12
10 28 0 21 2 24 10 12 5 -8 10 -39 10 -67z m-2490 63 c0 -2 -8 -10 -17 -17
-16 -13 -17 -12 -4 4 13 16 21 21 21 13z m1937 -53 c-3 -10 -5 -4 -5 12 0 17
2 24 5 18 2 -7 2 -21 0 -30z m238 28 c-7 -13 -72 -15 -79 -3 -3 5 16 9 40 11
30 1 44 -2 39 -8z m-175 -21 c0 -5 -7 -10 -15 -10 -8 0 -15 5 -15 10 0 6 7 10
15 10 8 0 15 -4 15 -10z m-2060 -3 c0 -2 -12 -14 -27 -28 l-28 -24 24 28 c23
25 31 32 31 24z m-4430 -27 c0 -5 -2 -10 -4 -10 -3 0 -8 5 -11 10 -3 6 -1 10
4 10 6 0 11 -4 11 -10z m7085 -19 c-3 -6 -11 -11 -16 -11 -5 0 -4 6 3 14 14
16 24 13 13 -3z m-6564 -17 c28 -14 49 -28 46 -30 -6 -6 -95 35 -103 47 -8 14
3 11 57 -17z m6517 -29 c0 -14 -4 -25 -8 -25 -5 0 -15 -3 -23 -6 -13 -5 -15 7
-8 49 0 4 9 7 20 7 13 0 19 -7 19 -25z m-7073 5 c3 -5 1 -10 -4 -10 -6 0 -11
5 -11 10 0 6 2 10 4 10 3 0 8 -4 11 -10z m6285 0 c0 -5 -5 -10 -11 -10 -5 0
-7 5 -4 10 3 6 8 10 11 10 2 0 4 -4 4 -10z m-4686 -35 c15 -11 17 -18 9 -26
-9 -9 -16 -8 -27 4 -17 16 -21 37 -8 37 4 0 16 -7 26 -15z m5346 -75 c0 -5 -5
-10 -11 -10 -5 0 -7 5 -4 10 3 6 8 10 11 10 2 0 4 -4 4 -10z m-30 -10 c0 -5
-4 -10 -9 -10 -6 0 -13 5 -16 10 -3 6 1 10 9 10 9 0 16 -4 16 -10z m-5853
-136 c125 -72 151 -90 141 -99 -4 -5 -264 147 -281 164 -25 25 14 7 140 -65z
m5025 14 c-9 -9 -12 -4 -11 23 0 32 1 33 11 11 8 -17 8 -26 0 -34z m73 42 c3
-5 1 -10 -4 -10 -6 0 -11 5 -11 10 0 6 2 10 4 10 3 0 8 -4 11 -10z m-106 -12
c0 -7 -4 -22 -8 -32 -7 -19 -8 -19 -13 2 -4 13 -2 22 5 22 7 0 5 5 -3 10 -13
8 -12 10 3 10 9 0 17 -6 16 -12z m-3684 -33 l20 -16 -20 10 c-11 5 -29 17 -40
26 l-20 16 20 -10 c11 -5 29 -17 40 -26z m-25 -11 c0 -2 -9 0 -20 6 -11 6 -20
13 -20 16 0 2 9 0 20 -6 11 -6 20 -13 20 -16z m6525 6 c-3 -5 -14 -10 -23 -9
-14 0 -13 2 3 9 27 11 27 11 20 0z m-2674 -63 c-8 -8 -11 -2 -11 19 0 40 14
54 18 19 2 -15 -1 -32 -7 -38z m-4880 10 c-8 -8 -11 -7 -11 4 0 9 3 19 7 23 4
4 9 2 11 -4 3 -7 -1 -17 -7 -23z m494 23 c3 -5 1 -10 -4 -10 -6 0 -11 5 -11
10 0 6 2 10 4 10 3 0 8 -4 11 -10z m4355 -15 c0 -17 -6 -25 -17 -25 -9 0 -31
-14 -48 -30 -25 -24 -43 -32 -86 -36 -38 -4 -50 -3 -39 5 8 5 18 7 23 4 5 -3
6 5 3 18 -6 20 -5 21 4 7 6 -10 18 -18 27 -18 13 0 13 3 3 15 -7 8 -9 16 -4
16 5 1 14 2 19 4 6 1 20 3 33 3 27 2 30 22 2 22 -35 0 -22 19 18 25 20 4 42 8
47 10 6 2 11 4 13 4 1 1 2 -10 2 -24z m-123 -17 c-3 -8 -6 -5 -6 6 -1 11 2 17
5 13 3 -3 4 -12 1 -19z m-4662 2 c3 -6 -1 -13 -10 -16 -19 -8 -30 0 -20 15 8
14 22 14 30 1z m-82 -36 c-6 -17 -11 -18 -28 0 -17 17 -10 25 15 19 11 -3 16
-11 13 -19z m487 16 c0 -5 -2 -10 -4 -10 -3 0 -8 5 -11 10 -3 6 -1 10 4 10 6
0 11 -4 11 -10z m530 0 c8 -5 11 -10 5 -10 -5 0 -17 5 -25 10 -8 5 -10 10 -5
10 6 0 17 -5 25 -10z m5420 -10 c-8 -5 -19 -10 -25 -10 -5 0 -3 5 5 10 8 5 20
10 25 10 6 0 3 -5 -5 -10z m-5410 -26 c0 -2 -9 0 -20 6 -11 6 -20 13 -20 16 0
2 9 0 20 -6 11 -6 20 -13 20 -16z m-974 5 c10 -17 -13 -36 -27 -22 -12 12 -4
33 11 33 5 0 12 -5 16 -11z m409 -9 c3 -5 1 -10 -4 -10 -6 0 -11 5 -11 10 0 6
2 10 4 10 3 0 8 -4 11 -10z m510 -40 c3 -6 -1 -7 -9 -4 -18 7 -21 14 -7 14 6
0 13 -4 16 -10z m-1645 -344 c456 -450 779 -747 1065 -979 177 -145 225 -187
225 -197 0 -12 -193 51 -304 100 -114 50 -375 198 -491 277 -235 162 -387 300
-492 449 -143 201 -216 328 -332 576 -48 103 -52 125 -19 107 12 -7 169 -156
348 -333z m5650 328 c0 -8 -4 -12 -10 -9 -5 3 -10 10 -10 16 0 5 5 9 10 9 6 0
10 -7 10 -16z m-6032 -22 c2 -7 -3 -12 -12 -12 -9 0 -16 7 -16 16 0 17 22 14
28 -4z m5772 14 c0 -3 -4 -8 -10 -11 -5 -3 -10 -1 -10 4 0 6 5 11 10 11 6 0
10 -2 10 -4z m337 -18 c-3 -8 -6 -5 -6 6 -1 11 2 17 5 13 3 -3 4 -12 1 -19z
m-380 6 c-3 -3 -12 -4 -19 -1 -8 3 -5 6 6 6 11 1 17 -2 13 -5z m274 -19 c6 17
8 17 8 3 1 -10 6 -18 11 -18 6 0 10 8 11 18 0 12 2 13 6 3 5 -11 7 -11 14 0 7
11 9 10 9 -3 0 -20 -43 -33 -144 -42 -38 -4 -73 -9 -78 -12 -4 -3 -8 -23 -8
-44 l0 -38 -137 -76 c-75 -42 -139 -74 -141 -71 -3 2 21 30 53 62 48 49 54 58
38 64 -12 4 -2 9 32 13 28 4 59 11 70 16 l20 9 -20 1 c-19 1 -18 2 3 10 15 6
22 18 22 35 0 18 5 25 20 25 17 0 19 -5 14 -42 -4 -30 -3 -40 4 -33 6 6 12 26
14 45 3 34 3 34 72 45 49 8 71 17 79 31 11 19 11 19 16 -1 l4 -20 8 20z
m-4695 -32 c-10 -10 -19 5 -10 18 6 11 8 11 12 0 2 -7 1 -15 -2 -18z m-1338
-4 c-2 -6 -8 -10 -13 -10 -5 0 -11 4 -13 10 -2 6 4 11 13 11 9 0 15 -5 13 -11z
m52 -30 c0 -5 -7 -9 -15 -9 -15 0 -20 12 -9 23 8 8 24 -1 24 -14z m5930 -7
c-30 -16 -67 -36 -83 -46 l-27 -18 3 31 c2 17 7 34 11 38 7 8 76 20 121 22 27
1 24 -2 -25 -27z m-215 -2 c-16 -4 -46 -8 -65 -7 l-35 0 40 7 c22 4 51 7 65 7
22 1 22 0 -5 -7z m-5800 -20 c3 -5 -1 -10 -9 -10 -9 0 -16 5 -16 10 0 6 4 10
9 10 6 0 13 -4 16 -10z m42 -36 c-9 -9 -28 6 -21 18 4 6 10 6 17 -1 6 -6 8
-13 4 -17z m5721 9 c-10 -2 -26 -2 -35 0 -10 3 -2 5 17 5 19 0 27 -2 18 -5z
m-1830 -148 c1 -1 -41 -36 -94 -76 -144 -110 -183 -140 -383 -299 -100 -80
-197 -156 -214 -170 -103 -80 -254 -205 -333 -275 -136 -119 -178 -152 -166
-128 6 11 8 23 5 27 -4 4 -9 18 -10 31 -3 19 0 23 12 19 14 -6 20 10 16 44 -1
7 4 11 11 10 7 -2 12 3 11 10 -2 6 2 12 8 12 5 0 7 5 4 10 -3 6 1 10 9 10 9 0
13 6 10 14 -3 8 0 17 7 22 8 5 10 3 4 -7 -6 -11 -4 -10 8 1 9 8 18 26 20 40 3
17 10 25 25 25 12 0 24 4 28 8 4 4 2 7 -4 7 -7 0 -12 5 -12 11 0 5 5 7 10 4 6
-3 10 -1 10 4 0 6 3 10 8 10 19 -3 23 2 12 16 -10 12 -8 14 9 10 12 -2 21 0
21 6 0 5 -4 9 -10 9 -5 0 -10 4 -10 9 0 6 9 8 19 6 16 -3 19 1 15 23 -3 16 -1
22 4 15 8 -13 35 -2 30 13 -2 5 2 11 7 12 6 2 18 9 29 14 15 8 16 12 5 19 -10
6 -6 8 11 7 14 -1 28 -7 33 -13 4 -5 5 2 3 17 -3 20 -1 25 10 21 10 -4 12 0 7
13 -5 13 -3 15 8 8 26 -16 59 -5 59 20 -1 6 -6 5 -13 -4 -14 -17 -37 -24 -37
-12 0 5 11 14 25 20 14 6 25 15 25 20 0 5 7 9 16 9 15 0 15 -1 0 -12 -8 -7
-13 -15 -10 -18 8 -7 34 18 34 32 0 6 3 10 8 10 19 -3 34 3 54 23 21 21 35 28
65 30 7 1 12 4 11 7 -2 19 4 24 12 11 8 -12 11 -11 16 8 5 16 12 21 24 17 9
-3 24 3 35 15 20 22 40 27 30 8 -4 -7 2 -3 13 10 11 12 25 22 32 22 6 0 8 5 5
10 -6 10 7 14 32 11 7 -1 10 5 7 13 -4 11 1 14 20 12 14 -2 26 1 26 5 0 5 -4
9 -10 9 -5 0 -10 4 -10 8 0 4 9 8 19 8 11 0 17 -4 14 -9 -3 -5 6 -1 21 8 14
10 26 24 26 31 0 8 8 14 18 14 11 0 24 10 31 23 6 12 9 14 7 5 -3 -10 -1 -18
4 -18 5 0 12 11 16 25 4 14 9 24 12 21 3 -3 11 2 19 12 14 16 14 16 9 0 -3
-10 0 -20 6 -24 7 -4 8 -3 4 4 -4 7 -2 12 3 12 6 0 11 6 11 14 0 10 7 12 23 9
22 -5 22 -5 2 11 -11 10 -15 15 -8 12 6 -3 18 -3 27 0 14 5 14 9 4 22 -10 13
31 -7 70 -33z m-2018 15 c0 -5 -2 -10 -4 -10 -3 0 -8 5 -11 10 -3 6 -1 10 4
10 6 0 11 -4 11 -10z m4870 0 c0 -5 -5 -10 -11 -10 -5 0 -7 5 -4 10 3 6 8 10
11 10 2 0 4 -4 4 -10z m-35 -20 c-3 -5 -14 -10 -23 -10 -15 0 -15 2 -2 10 20
13 33 13 25 0z m-1168 -6 c-3 -3 -12 -4 -19 -1 -8 3 -5 6 6 6 11 1 17 -2 13
-5z m-5477 -24 c0 -5 -2 -10 -4 -10 -3 0 -8 5 -11 10 -3 6 -1 10 4 10 6 0 11
-4 11 -10z m5485 1 c-16 -14 -165 -93 -165 -87 0 3 22 17 49 31 28 13 54 31
58 39 4 7 17 16 28 19 34 8 40 8 30 -2z m1085 -5 c0 -2 -22 -16 -50 -30 -27
-14 -50 -23 -50 -18 0 4 19 18 43 29 42 22 57 27 57 19z m-6593 -42 c-3 -3
-12 -4 -19 -1 -8 3 -5 6 6 6 11 1 17 -2 13 -5z m-692 -16 c14 -6 25 -15 25
-20 0 -7 -55 15 -69 28 -9 9 20 3 44 -8z m7145 -5 c0 -13 -111 -64 -122 -57
-6 4 15 20 48 35 62 30 74 34 74 22z m-4660 -7 c0 -3 -4 -8 -10 -11 -5 -3 -10
-1 -10 4 0 6 5 11 10 11 6 0 10 -2 10 -4z m4716 -11 c-11 -8 -24 -15 -29 -15
-5 0 -7 -9 -4 -21 4 -15 2 -19 -8 -15 -8 3 -17 0 -21 -6 -4 -7 -3 -8 4 -4 7 4
12 2 12 -4 0 -7 -9 -14 -20 -17 -22 -6 -27 -19 -9 -25 6 -2 -31 -23 -82 -47
-52 -24 -117 -54 -146 -67 -64 -30 -71 -30 -76 -1 -4 19 -4 19 -6 -5 -1 -24
-30 -46 -53 -40 -5 1 -8 -5 -8 -13 0 -8 -4 -15 -10 -15 -5 0 -91 -34 -191 -75
-187 -77 -210 -85 -190 -62 6 8 8 17 5 20 -11 10 130 75 179 82 26 4 47 12 47
17 0 5 5 6 10 3 6 -3 10 1 10 10 0 20 53 52 102 60 46 8 51 23 5 20 -35 -3
-103 -39 -127 -68 -8 -10 -33 -20 -55 -23 -37 -6 -38 -5 -20 8 53 39 365 189
377 182 7 -4 10 -3 5 1 -4 5 19 23 50 41 42 23 62 30 74 23 13 -6 41 2 101 31
91 43 103 47 74 25z m-1176 -10 c0 -2 -10 -9 -22 -15 -22 -11 -22 -10 -4 4 21
17 26 19 26 11z m-6155 -25 c3 -6 -1 -7 -9 -4 -18 7 -21 14 -7 14 6 0 13 -4
16 -10z m490 0 c3 -5 -1 -10 -9 -10 -9 0 -16 5 -16 10 0 6 4 10 9 10 6 0 13
-4 16 -10z m5615 -5 c0 -2 -10 -9 -22 -15 -22 -11 -22 -10 -4 4 21 17 26 19
26 11z m-5560 -20 c27 -15 20 -19 -17 -9 -13 4 -23 10 -23 15 0 12 11 11 40
-6z m7501 -96 c-28 -50 -51 -97 -51 -103 0 -12 -146 -265 -226 -393 -21 -35
-44 -63 -50 -63 -11 0 -54 -91 -54 -112 0 -16 -110 -168 -121 -168 -6 0 -7 -4
-4 -10 3 -5 -1 -10 -10 -10 -10 0 -15 -6 -12 -13 5 -14 -17 -39 -27 -30 -3 4
-6 1 -6 -5 0 -6 -27 -36 -60 -68 -33 -31 -60 -63 -60 -70 0 -24 -132 -124
-228 -173 -43 -22 -44 -22 -75 -3 -45 26 -530 332 -792 499 -121 77 -230 145
-242 152 -33 17 -28 29 19 41 22 7 51 18 62 25 12 7 37 17 56 21 42 9 41 9 60
17 64 25 155 48 171 44 11 -3 26 1 34 9 21 21 125 55 148 48 11 -3 23 0 30 9
13 16 90 43 149 52 21 4 73 19 116 35 44 16 82 26 86 23 3 -3 11 -1 18 4 7 6
47 20 88 33 41 12 90 28 108 36 18 8 41 14 51 14 29 0 162 46 170 59 4 6 15 9
24 5 9 -3 17 -2 17 4 0 14 63 34 82 27 9 -4 60 7 114 24 55 17 146 44 204 62
58 17 130 39 160 50 57 19 92 27 99 23 2 -2 -20 -44 -48 -95z m-7571 73 c0 -4
14 -13 32 -20 17 -6 29 -14 26 -17 -5 -6 -98 33 -98 40 0 3 9 5 20 5 11 0 20
-4 20 -8z m560 -42 c0 -5 -5 -10 -11 -10 -5 0 -7 5 -4 10 3 6 8 10 11 10 2 0
4 -4 4 -10z m4860 -35 c0 -2 -10 -9 -22 -15 -22 -11 -22 -10 -4 4 21 17 26 19
26 11z m-5268 -103 c-14 -4 -122 61 -116 70 3 4 32 -9 64 -30 33 -20 56 -38
52 -40z m5163 50 c-19 -17 -170 -104 -157 -91 17 18 144 97 157 98 6 1 6 -2 0
-7z m-5384 -83 l24 -20 -25 13 c-14 7 -28 12 -32 13 -14 0 -20 15 -6 15 9 0
26 -9 39 -21z m-96 -19 c3 -5 1 -10 -4 -10 -6 0 -11 5 -11 10 0 6 2 10 4 10 3
0 8 -4 11 -10z m5300 0 c-3 -6 -21 -17 -38 -26 -36 -19 -31 -9 10 17 34 21 36
22 28 9z m1015 -5 c0 -6 -56 -35 -67 -35 -4 1 8 9 27 20 39 22 40 22 40 15z
m-6249 -25 c13 -10 20 -19 16 -20 -11 0 -67 29 -67 35 0 12 30 3 51 -15z m839
-84 c11 -17 7 -16 -27 4 -72 45 -83 52 -83 61 0 14 97 -43 110 -65z m-44 -2
c29 -18 54 -31 56 -28 3 2 10 -2 16 -9 9 -11 8 -13 -6 -12 -24 1 -153 80 -146
88 7 7 6 8 80 -39z m-175 -7 c-13 -13 -26 -3 -16 12 3 6 11 8 17 5 6 -4 6 -10
-1 -17z m-201 3 c0 -5 -5 -10 -11 -10 -5 0 -7 5 -4 10 3 6 8 10 11 10 2 0 4
-4 4 -10z m4868 -29 c-13 -21 -29 -23 -35 -5 -3 10 38 35 45 29 2 -2 -3 -13
-10 -24z m-4618 10 c0 -6 -4 -13 -10 -16 -5 -3 -10 1 -10 9 0 9 5 16 10 16 6
0 10 -4 10 -9z m1118 -17 c26 -18 27 -22 3 -53 -17 -23 -18 -23 -51 -6 -31 16
-32 19 -17 30 10 7 17 17 16 21 -5 29 15 32 49 8z m-1898 -24 c0 -5 -4 -10
-10 -10 -5 0 -10 5 -10 10 0 6 5 10 10 10 6 0 10 -4 10 -10z m40 -21 c0 -4 -7
-6 -15 -3 -8 4 -15 10 -15 15 0 4 7 6 15 3 8 -4 15 -10 15 -15z m1974 -55 c17
-7 22 -34 7 -34 -21 0 -41 13 -41 26 0 15 10 17 34 8z m-1098 -45 c10 -16 -23
-46 -36 -33 -6 6 -8 18 -4 27 7 19 29 22 40 6z m1080 -4 c10 -8 15 -14 9 -14
-5 0 -19 6 -29 14 -11 8 -15 15 -10 15 6 0 19 -7 30 -15z m-1536 -17 c41 -23
51 -44 26 -54 -10 -4 -52 14 -94 41 -6 4 11 35 20 35 5 0 27 -10 48 -22z
m1521 -29 c19 -16 20 -18 4 -10 -34 17 -51 31 -39 31 7 0 22 -9 35 -21z
m-1550 -21 c60 -34 48 -73 -13 -42 -52 26 -60 35 -47 50 15 18 14 18 60 -8z
m449 12 c0 -5 -4 -10 -10 -10 -5 0 -10 5 -10 10 0 6 5 10 10 10 6 0 10 -4 10
-10z m-30 -54 c0 -3 -4 -8 -10 -11 -5 -3 -10 -1 -10 4 0 6 5 11 10 11 6 0 10
-2 10 -4z m-230 -53 c-1 -18 -18 -35 -24 -24 -4 6 -4 16 -1 21 7 12 25 13 25
3z m1330 -29 c0 -2 -11 2 -25 8 -14 6 -25 15 -25 20 0 5 11 1 25 -8 14 -9 25
-18 25 -20z m3480 -34 c0 -5 -5 -12 -11 -16 -14 -8 -33 11 -25 25 7 11 36 4
36 -9z m-4815 -12 c34 -23 44 -38 25 -38 -5 0 -10 4 -10 10 0 5 -11 12 -24 16
-14 3 -27 12 -30 20 -7 19 -2 18 39 -8z m4873 -26 c2 -7 -3 -12 -12 -12 -9 0
-16 7 -16 16 0 17 22 14 28 -4z m-4890 -36 c12 -4 22 -14 22 -22 0 -11 -9 -9
-37 9 -20 13 -39 30 -41 38 -4 11 -1 10 14 -2 10 -9 29 -20 42 -23z m82 14 c0
-5 -2 -10 -4 -10 -3 0 -8 5 -11 10 -3 6 -1 10 4 10 6 0 11 -4 11 -10z m70 0
c0 -5 -2 -10 -4 -10 -3 0 -8 5 -11 10 -3 6 -1 10 4 10 6 0 11 -4 11 -10z m-40
-10 c0 -5 -4 -10 -10 -10 -5 0 -10 5 -10 10 0 6 5 10 10 10 6 0 10 -4 10 -10z
m4670 -16 c0 -8 -7 -14 -15 -14 -15 0 -21 21 -9 33 10 9 24 -2 24 -19z m-2435
6 c3 -5 1 -10 -4 -10 -6 0 -11 5 -11 10 0 6 2 10 4 10 3 0 8 -4 11 -10z
m-2185 -20 c0 -5 -2 -10 -4 -10 -3 0 -8 5 -11 10 -3 6 -1 10 4 10 6 0 11 -4
11 -10z m-110 -10 c0 -5 -4 -10 -10 -10 -5 0 -10 5 -10 10 0 6 5 10 10 10 6 0
10 -4 10 -10z m4793 -5 c1 -5 -6 -11 -15 -13 -11 -2 -18 3 -18 13 0 17 30 18
33 0z m-4590 -31 c81 -41 82 -42 75 -50 -7 -6 -144 61 -153 76 -10 16 1 12 78
-26z m-173 16 c0 -5 -4 -10 -10 -10 -5 0 -10 5 -10 10 0 6 5 10 10 10 6 0 10
-4 10 -10z m4656 -21 c10 -17 -13 -36 -27 -22 -12 12 -4 33 11 33 5 0 12 -5
16 -11z m-4524 -49 c51 -27 87 -50 80 -50 -13 0 -123 57 -167 87 -41 28 -1 11
87 -37z m3978 36 c0 -3 -4 -8 -10 -11 -5 -3 -10 -1 -10 4 0 6 5 11 10 11 6 0
10 -2 10 -4z m610 -29 c0 -8 -3 -17 -7 -20 -9 -9 -34 13 -27 24 8 14 34 11 34
-4z m-4875 -75 c-6 -6 -75 38 -75 48 0 5 18 -3 40 -17 22 -15 38 -28 35 -31z
m35 -12 c0 -5 7 -10 16 -10 8 0 12 -4 9 -10 -4 -6 -13 -5 -25 3 -21 13 -26 27
-10 27 6 0 10 -4 10 -10z m4980 -40 c0 -5 -5 -10 -11 -10 -5 0 -7 5 -4 10 3 6
8 10 11 10 2 0 4 -4 4 -10z m-4824 -46 c47 -26 83 -48 81 -51 -3 -2 -22 5 -43
16 -22 11 -54 27 -73 36 -32 16 -69 45 -57 45 4 0 45 -21 92 -46z m-1400 21
c16 -12 16 -14 3 -15 -9 0 -22 7 -29 15 -16 19 0 19 26 0z m5375 -18 c-8 -8
-11 -7 -11 4 0 20 13 34 18 19 3 -7 -1 -17 -7 -23z m2949 18 c0 -1 -6 -7 -13
-13 -10 -8 -13 -6 -13 7 0 11 6 17 13 14 7 -3 13 -6 13 -8z m-2130 -25 c0 -5
-5 -10 -11 -10 -5 0 -7 5 -4 10 3 6 8 10 11 10 2 0 4 -4 4 -10z m-4582 -46
c32 -9 28 -28 -5 -19 -32 7 -55 25 -32 25 7 0 24 -3 37 -6z m6644 -1 c-6 -2
-10 -8 -7 -13 3 -4 -2 -13 -10 -20 -12 -10 -15 -9 -15 8 0 19 13 30 35 30 6 0
4 -2 -3 -5z m-2998 -24 c-3 -5 -10 -7 -15 -3 -5 3 -7 10 -3 15 3 5 10 7 15 3
5 -3 7 -10 3 -15z m-3669 -9 c37 -14 22 -32 -15 -18 -17 5 -27 14 -24 19 7 11
7 11 39 -1z m-905 -10 c0 -5 -4 -10 -10 -10 -5 0 -10 5 -10 10 0 6 5 10 10 10
6 0 10 -4 10 -10z m5276 -5 c25 -19 14 -19 -22 0 -16 8 -22 15 -13 15 8 0 24
-7 35 -15z m1844 11 c0 -2 -7 -7 -16 -10 -8 -3 -12 -2 -9 4 6 10 25 14 25 6z
m-44 -33 c-7 -7 -26 7 -26 19 0 6 6 6 15 -2 9 -7 13 -15 11 -17z m362 -84
c-40 -37 -76 -68 -80 -69 -5 0 -8 17 -7 38 0 32 1 34 9 15 5 -13 12 -23 15
-23 4 0 3 5 0 10 -3 6 -1 10 5 10 6 0 9 4 6 9 -6 9 22 26 38 22 12 -3 35 32
29 43 -4 5 -1 6 4 3 6 -4 13 0 17 8 3 9 12 12 22 8 12 -4 0 -21 -58 -74z
m-419 57 c17 -21 -34 -53 -56 -35 -13 12 -13 15 7 31 27 22 34 22 49 4z
m-7049 -6 c0 -5 -4 -10 -10 -10 -5 0 -10 5 -10 10 0 6 5 10 10 10 6 0 10 -4
10 -10z m1665 -17 c-7 -30 -21 -50 -30 -41 -8 8 16 68 27 68 6 0 7 -11 3 -27z
m2475 13 c0 -2 -7 -6 -15 -10 -8 -3 -15 -1 -15 4 0 6 7 10 15 10 8 0 15 -2 15
-4z m-3235 -27 c5 -6 3 -9 -7 -9 -24 0 -48 11 -48 22 0 10 39 1 55 -13z m6015
6 c-7 -8 -20 -15 -29 -15 -11 1 -8 5 9 15 32 18 35 18 20 0z m-6740 -16 c0 -5
-4 -9 -10 -9 -5 0 -10 7 -10 16 0 8 5 12 10 9 6 -3 10 -10 10 -16z m30 -9 c0
-5 7 -10 16 -10 8 0 12 -5 9 -10 -4 -7 -13 -7 -26 0 -20 11 -26 30 -9 30 6 0
10 -4 10 -10z m680 -21 c0 -11 -3 -11 -34 1 -37 14 -33 32 4 19 17 -6 30 -15
30 -20z m-744 -24 c4 -8 12 -15 20 -15 8 0 14 -4 14 -10 0 -5 -7 -10 -15 -10
-8 0 -15 5 -15 10 0 6 -7 10 -15 10 -8 0 -15 7 -15 15 0 8 5 15 10 15 6 0 13
-7 16 -15z m-216 -21 c0 -8 -5 -12 -10 -9 -6 4 -8 11 -5 16 9 14 15 11 15 -7z
m7373 -14 c22 21 52 26 61 11 7 -10 -85 -91 -103 -91 -6 0 -11 -4 -11 -10 0
-5 -4 -10 -10 -10 -6 0 -10 26 -10 58 0 38 3 52 9 42 6 -8 8 -17 5 -21 -2 -4
0 -10 5 -14 6 -3 14 11 18 32 7 35 8 35 11 11 l3 -28 22 20z m-7058 -80 c3 -5
1 -10 -4 -10 -6 0 -11 5 -11 10 0 6 2 10 4 10 3 0 8 -4 11 -10z m7639 -15 c-9
-14 -19 -23 -22 -20 -5 4 26 45 35 45 2 0 -4 -11 -13 -25z m-7600 -16 c-3 -5
-10 -7 -15 -3 -5 3 -7 10 -3 15 3 5 10 7 15 3 5 -3 7 -10 3 -15z m-54 -9 c0
-5 -4 -10 -10 -10 -5 0 -10 5 -10 10 0 6 5 10 10 10 6 0 10 -4 10 -10z m30
-20 c0 -5 -4 -10 -10 -10 -5 0 -10 5 -10 10 0 6 5 10 10 10 6 0 10 -4 10 -10z
m-55 -20 c3 -5 1 -10 -4 -10 -6 0 -11 5 -11 10 0 6 2 10 4 10 3 0 8 -4 11 -10z
m195 -10 c0 -5 -5 -10 -11 -10 -5 0 -7 5 -4 10 3 6 8 10 11 10 2 0 4 -4 4 -10z
m-465 -12 c14 -6 25 -15 25 -20 0 -4 7 -8 15 -8 8 0 15 -4 15 -9 0 -5 -7 -14
-15 -21 -12 -10 -15 -10 -15 1 0 8 -14 26 -32 41 -36 30 -34 35 7 16z m305 2
c0 -5 -4 -10 -10 -10 -5 0 -10 5 -10 10 0 6 5 10 10 10 6 0 10 -4 10 -10z
m140 -30 c0 -5 -5 -10 -11 -10 -5 0 -7 5 -4 10 3 6 8 10 11 10 2 0 4 -4 4 -10z
m-370 -30 c0 -5 -4 -10 -10 -10 -5 0 -10 5 -10 10 0 6 5 10 10 10 6 0 10 -4
10 -10z m-115 -12 c14 -6 25 -15 25 -20 0 -4 5 -8 11 -8 15 0 43 -30 35 -38
-4 -3 -10 -2 -14 4 -4 6 -17 14 -29 18 -13 4 -23 12 -23 17 0 5 -6 9 -14 9 -8
0 -16 7 -20 15 -7 18 -4 18 29 3z m465 2 c0 -5 -4 -10 -10 -10 -5 0 -10 5 -10
10 0 6 5 10 10 10 6 0 10 -4 10 -10z m-286 -31 c-3 -5 -10 -7 -15 -3 -5 3 -7
10 -3 15 3 5 10 7 15 3 5 -3 7 -10 3 -15z m4356 1 c0 -5 -2 -10 -4 -10 -3 0
-8 5 -11 10 -3 6 -1 10 4 10 6 0 11 -4 11 -10z m-4000 -10 c0 -5 -2 -10 -4
-10 -3 0 -8 5 -11 10 -3 6 -1 10 4 10 6 0 11 -4 11 -10z m30 -10 c0 -5 -5 -10
-11 -10 -5 0 -7 5 -4 10 3 6 8 10 11 10 2 0 4 -4 4 -10z m-1290 -29 c0 -16
-76 -60 -90 -51 -19 12 -5 39 17 34 10 -3 27 2 38 10 23 17 35 20 35 7z m5214
-15 c-3 -9 -10 -16 -15 -16 -6 0 -5 9 1 21 13 24 24 20 14 -5z m-4344 -6 c0
-5 -4 -10 -10 -10 -5 0 -10 5 -10 10 0 6 5 10 10 10 6 0 10 -4 10 -10z m3790
-40 c-6 -12 -14 -20 -17 -17 -2 3 1 14 8 26 17 26 24 19 9 -9z m830 -20 c0 -5
-2 -10 -4 -10 -3 0 -8 5 -11 10 -3 6 -1 10 4 10 6 0 11 -4 11 -10z m315 -10
c3 -5 1 -10 -4 -10 -6 0 -11 5 -11 10 0 6 2 10 4 10 3 0 8 -4 11 -10z m-4885
-36 c0 -7 7 -17 17 -22 16 -10 12 -42 -6 -42 -13 0 -71 49 -71 60 0 5 7 16 16
25 12 12 19 13 30 4 8 -6 14 -17 14 -25z m-285 -37 c6 -4 19 -14 30 -22 11 -7
16 -17 11 -22 -5 -4 -11 -2 -13 5 -3 6 -11 12 -19 12 -8 0 -14 3 -14 8 0 4
-14 15 -30 24 -17 9 -30 22 -30 28 0 9 33 -8 65 -33z m5085 -47 c0 -5 -2 -10
-4 -10 -3 0 -8 5 -11 10 -3 6 -1 10 4 10 6 0 11 -4 11 -10z m-4932 -48 c8 -7
11 -16 8 -20 -4 -3 -10 -2 -14 3 -4 6 -20 16 -35 23 -15 7 -25 16 -22 22 6 10
37 -3 63 -28z m5962 -91 c0 -6 -4 -13 -10 -16 -5 -3 -10 1 -10 9 0 9 5 16 10
16 6 0 10 -4 10 -9z m-952 -52 c-2 -6 -8 -10 -13 -10 -5 0 -11 4 -13 10 -2 6
4 11 13 11 9 0 15 -5 13 -11z m319 -134 c129 -73 189 -113 186 -122 -4 -10
-19 -5 -62 19 -153 86 -336 191 -340 193 -5 6 10 26 17 22 4 -2 93 -52 199
-112z m573 81 c0 -3 -4 -8 -10 -11 -5 -3 -10 -1 -10 4 0 6 5 11 10 11 6 0 10
-2 10 -4z m-531 -180 c96 -56 131 -86 100 -86 -9 0 -371 201 -388 216 -1 1 0
8 4 13 7 12 86 -28 284 -143z m-429 109 c0 -8 -4 -15 -9 -15 -13 0 -22 16 -14
24 11 11 23 6 23 -9z m-5540 -45 c0 -5 -4 -10 -10 -10 -5 0 -10 5 -10 10 0 6
5 10 10 10 6 0 10 -4 10 -10z m4736 -11 c10 -17 -13 -36 -27 -22 -12 12 -4 33
11 33 5 0 12 -5 16 -11z m917 -70 c37 -19 337 -188 345 -195 2 -1 0 -9 -5 -17
-6 -11 -48 9 -200 97 -106 61 -193 117 -193 124 0 16 4 16 53 -9z m527 -4 c0
-8 -4 -15 -10 -15 -5 0 -10 7 -10 15 0 8 5 15 10 15 6 0 10 -7 10 -15z m50
-30 c0 -8 -4 -15 -10 -15 -5 0 -10 7 -10 15 0 8 5 15 10 15 6 0 10 -7 10 -15z
m-1550 -10 c0 -8 -9 -15 -20 -15 -20 0 -26 11 -13 23 12 13 33 7 33 -8z m1038
-66 c266 -149 266 -149 242 -164 -10 -6 -40 10 -287 152 -98 56 -128 83 -92
83 5 0 67 -32 137 -71z m-4958 -53 c0 -3 -4 -8 -10 -11 -5 -3 -10 -1 -10 4 0
6 5 11 10 11 6 0 10 -2 10 -4z m4035 -86 c-13 -25 -35 -41 -35 -25 0 16 26 55
37 55 11 0 11 -6 -2 -30z m1455 16 c0 -3 -4 -8 -10 -11 -5 -3 -10 -1 -10 4 0
6 5 11 10 11 6 0 10 -2 10 -4z m-5860 -70 c0 -3 -4 -8 -10 -11 -5 -3 -10 -1
-10 4 0 6 5 11 10 11 6 0 10 -2 10 -4z m281 -53 c-8 -15 -10 -15 -11 -2 0 17
10 32 18 25 2 -3 -1 -13 -7 -23z m4069 12 c0 -8 -4 -15 -10 -15 -5 0 -10 7
-10 15 0 8 5 15 10 15 6 0 10 -7 10 -15z m1248 -69 c26 -13 58 -33 72 -44 23
-19 24 -22 8 -38 -15 -16 -21 -14 -85 21 -82 45 -76 39 -68 64 8 27 15 26 73
-3z m-5508 -16 c0 -5 -4 -10 -10 -10 -5 0 -10 5 -10 10 0 6 5 10 10 10 6 0 10
-4 10 -10z m-20 -50 c0 -5 -7 -10 -15 -10 -8 0 -15 5 -15 10 0 6 7 10 15 10 8
0 15 -4 15 -10z m-647 -150 c-3 -11 -9 -17 -15 -14 -5 3 -4 12 3 20 16 19 18
18 12 -6z m94 -6 c22 -6 24 -11 19 -37 -3 -17 -8 -33 -11 -35 -7 -7 -63 18
-75 33 -16 19 6 59 27 51 8 -3 26 -9 40 -12z m10343 -39 c20 -25 6 -31 -17 -7
-14 14 -18 22 -9 22 8 0 19 -7 26 -15z m60 -35 c0 -5 -2 -10 -4 -10 -3 0 -8 5
-11 10 -3 6 -1 10 4 10 6 0 11 -4 11 -10z m-460 -45 c10 -12 10 -15 -4 -15 -9
0 -16 7 -16 15 0 8 2 15 4 15 2 0 9 -7 16 -15z m74 -6 c-3 -5 -10 -7 -15 -3
-5 3 -7 10 -3 15 3 5 10 7 15 3 5 -3 7 -10 3 -15z m36 -9 c0 -5 -4 -10 -10
-10 -5 0 -10 5 -10 10 0 6 5 10 10 10 6 0 10 -4 10 -10z m-4010 -10 c0 -5 -4
-10 -10 -10 -5 0 -10 5 -10 10 0 6 5 10 10 10 6 0 10 -4 10 -10z m3950 -14 c0
-3 -4 -8 -10 -11 -5 -3 -10 -1 -10 4 0 6 5 11 10 11 6 0 10 -2 10 -4z m130
-16 c0 -5 -4 -10 -9 -10 -6 0 -13 5 -16 10 -3 6 1 10 9 10 9 0 16 -4 16 -10z
m170 -14 c0 -11 -19 -15 -25 -6 -3 5 1 10 9 10 9 0 16 -2 16 -4z m-330 -26 c0
-5 -4 -10 -10 -10 -5 0 -10 5 -10 10 0 6 5 10 10 10 6 0 10 -4 10 -10z m280
-6 c0 -2 -7 -4 -15 -4 -8 0 -15 4 -15 10 0 5 7 7 15 4 8 -4 15 -8 15 -10z m76
-11 c-10 -10 -19 5 -10 18 6 11 8 11 12 0 2 -7 1 -15 -2 -18z m-226 13 c0 -3
-4 -8 -10 -11 -5 -3 -10 -1 -10 4 0 6 5 11 10 11 6 0 10 -2 10 -4z m-4114 -43
c-10 -10 -19 5 -10 18 6 11 8 11 12 0 2 -7 1 -15 -2 -18z m4264 -15 c0 -12
-12 -9 -32 6 -26 19 -22 27 7 14 14 -6 25 -15 25 -20z m55 22 c3 -5 2 -10 -4
-10 -5 0 -13 5 -16 10 -3 6 -2 10 4 10 5 0 13 -4 16 -10z m-5095 -31 c0 -12
-7 -19 -20 -19 -22 0 -29 35 -7 43 18 6 27 -2 27 -24z m4860 21 c0 -5 -4 -10
-10 -10 -5 0 -10 5 -10 10 0 6 5 10 10 10 6 0 10 -4 10 -10z m294 -1 c14 -7
27 -18 30 -25 4 -10 -3 -9 -29 3 -19 9 -35 20 -35 25 0 11 4 10 34 -3z m-141
-61 c46 -33 30 -41 -23 -12 -51 28 -68 51 -27 38 12 -3 34 -15 50 -26z m-153
-28 c0 -11 -4 -20 -10 -20 -5 0 -10 -6 -10 -14 0 -16 -28 -41 -36 -33 -3 3 2
24 12 46 19 43 44 55 44 21z m-4930 -54 c0 -24 -26 -38 -40 -22 -6 9 -9 20 -5
26 9 15 45 12 45 -4z m-5220 -104 c0 -14 -49 -56 -57 -49 -3 4 4 18 17 32 24
25 40 32 40 17z m5960 4 c0 -3 -4 -8 -10 -11 -5 -3 -10 -1 -10 4 0 6 5 11 10
11 6 0 10 -2 10 -4z m-90 -86 c0 -5 -5 -10 -11 -10 -5 0 -7 5 -4 10 3 6 8 10
11 10 2 0 4 -4 4 -10z m-5981 -36 c-13 -14 -25 -20 -27 -14 -5 15 17 40 36 40
12 0 10 -6 -9 -26z m-73 -82 c-14 -14 -16 -14 -16 -1 0 20 23 44 29 28 2 -6
-4 -18 -13 -27z m10164 28 c0 -5 -4 -10 -10 -10 -5 0 -10 5 -10 10 0 6 5 10
10 10 6 0 10 -4 10 -10z m-4170 -30 c0 -5 -4 -10 -10 -10 -5 0 -10 5 -10 10 0
6 5 10 10 10 6 0 10 -4 10 -10z m-6040 -50 c-11 -20 -30 -28 -30 -12 0 11 22
32 32 32 5 0 4 -9 -2 -20z m-48 -52 c-7 -7 -12 -8 -12 -2 0 14 12 26 19 19 2
-3 -1 -11 -7 -17z m-41 -51 c-10 -9 -11 -8 -5 6 3 10 9 15 12 12 3 -3 0 -11
-7 -18z m-61 -198 c0 -6 -4 -7 -10 -4 -5 3 -10 11 -10 16 0 6 5 7 10 4 6 -3
10 -11 10 -16z m12625 -304 c19 -15 18 -15 -10 -1 -16 8 -39 22 -50 31 -19 15
-18 15 10 1 17 -8 39 -22 50 -31z m1 -32 c-4 -5 -86 44 -86 51 0 3 20 -7 46
-21 25 -14 43 -27 40 -30z m-71 -38 c22 -14 36 -25 30 -25 -5 1 -28 12 -50 25
-22 14 -35 25 -30 25 6 -1 28 -12 50 -25z m221 9 c18 -14 18 -14 -6 -3 -31 14
-36 19 -24 19 6 0 19 -7 30 -16z m149 -24 c3 -6 -1 -7 -9 -4 -18 7 -21 14 -7
14 6 0 13 -4 16 -10z m-5 -26 c0 -2 -9 0 -20 6 -11 6 -20 13 -20 16 0 2 9 0
20 -6 11 -6 20 -13 20 -16z m74 -39 c-4 -8 -8 -15 -10 -15 -2 0 -4 7 -4 15 0
8 4 15 10 15 5 0 7 -7 4 -15z m-119 -43 c-3 -3 -11 0 -18 7 -9 10 -8 11 6 5
10 -3 15 -9 12 -12z m-5 -23 c0 -4 -7 -6 -15 -3 -8 4 -15 10 -15 15 0 4 7 6
15 3 8 -4 15 -10 15 -15z m60 -8 c0 -3 -4 -12 -9 -20 -8 -12 -12 -12 -25 -2
-12 10 -13 18 -5 33 8 15 13 17 25 7 8 -6 14 -14 14 -18z m-105 -51 c3 -6 -1
-7 -9 -4 -18 7 -21 14 -7 14 6 0 13 -4 16 -10z m230 -68 c-4 -4 -95 48 -95 55
0 2 22 -8 49 -24 28 -15 48 -29 46 -31z m-50 3 c52 -32 40 -32 -16 0 -24 14
-39 25 -34 25 6 0 28 -11 50 -25z m-55 -60 c17 -9 30 -18 30 -21 0 -4 -59 23
-69 32 -10 9 13 3 39 -11z m-200 -345 c0 -5 -5 -10 -11 -10 -5 0 -7 5 -4 10 3
6 8 10 11 10 2 0 4 -4 4 -10z"/>
<path d="M11550 6121 c0 -67 3 -65 -93 -76 -38 -4 -57 -11 -54 -18 4 -12 141
-12 160 0 11 7 9 153 -3 153 -6 0 -10 -26 -10 -59z"/>
<path d="M11501 6123 c-1 -17 -7 -23 -26 -23 -14 0 -25 -5 -25 -11 0 -7 10 -9
27 -4 35 8 35 9 30 37 -4 23 -4 23 -6 1z"/>
<path d="M11242 6097 c-14 -17 -3 -34 28 -40 21 -4 20 -4 -7 -6 -38 -1 -45
-24 -13 -41 44 -23 69 17 53 83 -5 18 -33 24 -33 7 0 -5 -5 -10 -11 -10 -5 0
-7 5 -4 10 9 14 -1 12 -13 -3z"/>
<path d="M11230 5981 c0 -14 6 -19 20 -18 23 1 25 8 8 25 -17 17 -28 15 -28
-7z"/>
<path d="M11364 5958 c-3 -4 9 -8 26 -8 17 0 29 4 25 9 -6 11 -44 10 -51 -1z"/>
<path d="M11452 5940 c0 -14 2 -19 5 -12 2 6 2 18 0 25 -3 6 -5 1 -5 -13z"/>
<path d="M11230 5903 c0 -27 -3 -65 -7 -87 -5 -34 -4 -38 13 -34 10 2 19 11
20 21 1 12 1 13 -3 2 -11 -35 -22 -11 -16 38 7 63 13 74 13 24 0 -20 5 -37 10
-37 11 0 14 78 4 104 -3 9 -12 16 -20 16 -10 0 -14 -14 -14 -47z"/>
<path d="M11363 5896 c0 -22 1 -32 4 -21 3 11 14 30 25 41 19 21 19 21 -4 21
-20 0 -23 -5 -25 -41z"/>
<path d="M11030 5770 c0 -5 4 -10 9 -10 6 0 13 5 16 10 3 6 -1 10 -9 10 -9 0
-16 -4 -16 -10z"/>
<path d="M11030 5610 c0 -5 5 -10 10 -10 6 0 10 5 10 10 0 6 -4 10 -10 10 -5
0 -10 -4 -10 -10z"/>
<path d="M8416 5087 c3 -10 9 -15 12 -12 3 3 0 11 -7 18 -10 9 -11 8 -5 -6z"/>
<path d="M8360 5040 c-9 -6 -10 -10 -3 -10 6 0 15 5 18 10 8 12 4 12 -15 0z"/>
<path d="M8126 4898 c3 -4 9 -8 15 -8 5 0 9 4 9 8 0 5 -7 9 -15 9 -8 0 -12 -4
-9 -9z"/>
<path d="M11375 5100 c-3 -5 -2 -10 4 -10 5 0 13 5 16 10 3 6 2 10 -4 10 -5 0
-13 -4 -16 -10z"/>
<path d="M11270 5070 c0 -5 4 -10 9 -10 6 0 13 5 16 10 3 6 -1 10 -9 10 -9 0
-16 -4 -16 -10z"/>
<path d="M8330 10050 c-11 -7 -6 -10 20 -10 26 0 31 3 20 10 -8 5 -17 10 -20
10 -3 0 -12 -5 -20 -10z"/>
<path d="M8191 10011 c-16 -16 -37 -44 -46 -62 -11 -21 -12 -29 -4 -21 25 23
30 12 7 -18 -12 -16 -27 -30 -33 -30 -6 0 -19 -16 -30 -36 -10 -19 -30 -42
-44 -49 l-26 -14 23 -1 c29 0 83 55 75 76 -3 8 -1 14 5 12 10 -3 72 75 72 91
0 5 7 14 15 21 9 7 14 19 11 26 -3 7 0 16 6 20 7 5 8 2 3 -6 -5 -9 -4 -11 3
-6 7 4 12 11 12 17 0 17 -19 9 -49 -20z"/>
<path d="M6160 10015 c0 -7 81 -47 86 -43 2 3 -17 14 -41 26 -25 12 -45 20
-45 17z"/>
<path d="M6470 9987 c0 -2 39 -28 88 -58 147 -89 432 -281 432 -290 0 -5 7 -9
15 -9 8 0 15 -4 15 -9 0 -5 10 -12 23 -15 26 -7 153 -97 220 -157 26 -23 50
-40 53 -37 8 9 -108 101 -240 193 -200 137 -606 394 -606 382z"/>
<path d="M6420 9977 c0 -2 35 -25 78 -52 163 -101 202 -128 202 -137 0 -5 4
-7 9 -4 5 3 12 -1 15 -10 3 -8 10 -13 15 -10 5 3 12 -1 15 -10 3 -8 10 -12 16
-9 5 3 10 2 10 -3 0 -6 14 -15 30 -21 17 -5 30 -15 30 -20 0 -6 5 -11 11 -11
6 0 17 -7 26 -16 23 -23 161 -114 173 -114 5 0 10 -4 10 -10 0 -6 4 -9 9 -8 5
2 17 -6 26 -17 9 -11 13 -13 9 -5 -4 8 7 0 25 -17 18 -18 39 -33 46 -33 8 0
37 -20 65 -45 50 -44 65 -54 58 -36 -6 17 -169 140 -316 239 -244 164 -562
362 -562 349z"/>
<path d="M6290 9946 c0 -2 23 -18 50 -36 28 -18 55 -40 60 -50 5 -9 96 -73
202 -141 106 -68 279 -183 384 -255 211 -146 245 -166 262 -155 12 7 -39 51
-174 147 -239 173 -784 513 -784 490z"/>
<path d="M6410 9926 c0 -3 42 -31 93 -62 154 -96 261 -167 274 -181 6 -8 15
-14 20 -15 13 0 63 -32 63 -40 0 -7 146 -110 152 -108 12 4 37 -14 31 -23 -3
-5 -1 -7 4 -4 6 4 14 0 17 -9 3 -8 10 -12 16 -9 6 3 13 -1 16 -9 3 -9 10 -14
15 -11 4 3 13 -4 19 -15 6 -11 15 -18 20 -15 4 3 33 -15 64 -41 31 -25 56 -41
56 -36 0 9 -142 119 -275 214 -114 81 -585 374 -585 364z"/>
<path d="M6389 9801 c24 -30 39 -41 52 -38 11 3 17 2 14 -3 -7 -11 18 -30 165
-123 74 -47 154 -100 178 -118 23 -17 56 -39 72 -48 16 -9 81 -50 144 -93 146
-97 153 -101 153 -82 0 35 -464 348 -802 542 -5 4 5 -13 24 -37z"/>
<path d="M6210 9816 c0 -3 9 -10 20 -16 11 -6 20 -8 20 -6 0 3 -9 10 -20 16
-11 6 -20 8 -20 6z"/>
<path d="M6165 9783 c6 -6 76 -52 158 -102 137 -87 172 -113 130 -96 -32 11
-3 -8 282 -197 246 -162 417 -279 535 -367 19 -14 29 -18 21 -8 -7 9 -9 17 -4
17 16 0 44 -36 36 -45 -5 -4 -3 -5 3 -2 6 4 24 -5 40 -18 16 -14 33 -25 38
-25 32 0 -165 153 -414 323 -344 233 -874 567 -825 520z m569 -369 c303 -201
549 -375 541 -382 -3 -3 -15 4 -28 15 -53 48 -514 361 -763 520 -11 6 -15 12
-10 12 6 1 123 -74 260 -165z"/>
<path d="M6260 9786 c0 -2 96 -65 213 -140 116 -74 221 -142 232 -151 36 -30
-10 -9 -73 33 -71 48 -82 54 -82 49 0 -3 82 -59 183 -125 100 -66 243 -162
317 -213 74 -51 129 -85 121 -76 -7 10 -9 17 -3 17 13 0 33 -25 26 -32 -3 -3
9 -16 27 -29 18 -13 29 -18 25 -11 -17 27 17 8 88 -49 42 -33 78 -65 81 -70 4
-5 11 -9 17 -9 15 0 -18 36 -68 74 -237 180 -385 282 -759 522 -257 164 -345
218 -345 210z m658 -433 c222 -150 243 -165 238 -171 -3 -2 -49 27 -103 65
-54 39 -147 103 -208 143 -116 76 -134 90 -121 90 4 0 92 -57 194 -127z m313
-220 c13 -15 12 -15 -8 -4 -24 12 -29 21 -14 21 5 0 15 -7 22 -17z"/>
<path d="M6155 9686 c398 -255 934 -616 1108 -747 79 -60 130 -81 92 -38 -64
70 -440 330 -927 640 -124 79 -163 102 -311 183 -83 45 -66 28 38 -38z"/>
<path d="M7900 9734 c-25 -15 -25 -15 -1 -8 17 4 21 3 16 -6 -5 -9 -4 -11 4
-6 6 4 9 11 6 16 -3 4 1 11 7 13 7 3 9 6 3 6 -5 0 -21 -6 -35 -15z"/>
<path d="M6390 9616 c0 -3 9 -10 20 -16 11 -6 20 -8 20 -6 0 3 -9 10 -20 16
-11 6 -20 8 -20 6z"/>
<path d="M6370 9506 c0 -3 9 -10 20 -16 11 -6 20 -8 20 -6 0 3 -9 10 -20 16
-11 6 -20 8 -20 6z"/>
<path d="M6440 9459 c14 -12 24 -26 23 -30 -2 -5 2 -8 9 -6 6 1 17 -8 23 -21
18 -34 73 -81 167 -145 46 -31 119 -81 163 -112 93 -64 99 -68 225 -150 237
-155 233 -153 258 -136 16 10 -16 37 -183 158 -140 101 -277 193 -501 335
-201 128 -220 139 -184 107z"/>
<path d="M6746 9093 c12 -10 126 -90 253 -178 372 -257 383 -265 454 -326 38
-33 73 -59 79 -59 27 0 -69 79 -282 231 -168 121 -559 378 -504 332z"/>
<path d="M7260 9096 c0 -2 8 -10 18 -17 15 -13 16 -12 3 4 -13 16 -21 21 -21
13z"/>
<path d="M6800 9025 c0 -2 47 -36 105 -75 58 -39 105 -68 105 -65 0 2 -47 36
-105 75 -58 39 -105 68 -105 65z"/>
<path d="M6860 8937 c0 -2 19 -17 43 -32 23 -16 37 -22 30 -14 -12 15 -73 53
-73 46z"/>
<path d="M6950 8877 c0 -4 27 -23 270 -196 58 -41 139 -103 181 -138 69 -57
111 -80 94 -53 -11 17 -192 151 -362 267 -184 126 -183 126 -183 120z"/>
<path d="M7050 8856 c0 -2 14 -14 30 -26 17 -12 30 -19 30 -16 0 2 -13 14 -30
26 -16 12 -30 19 -30 16z"/>
<path d="M7124 8801 c4 -6 16 -16 28 -22 15 -8 18 -8 14 0 -4 6 -16 16 -28 22
-15 8 -18 8 -14 0z"/>
<path d="M6930 8767 c0 -3 12 -12 26 -22 15 -9 23 -12 20 -6 -7 11 -46 35 -46
28z"/>
<path d="M7180 8767 c0 -3 33 -29 73 -58 39 -29 87 -63 105 -77 17 -13 32 -22
32 -19 0 3 -42 36 -92 73 -51 37 -99 71 -105 77 -7 5 -13 7 -13 4z"/>
<path d="M6990 8726 c0 -2 66 -51 148 -108 81 -56 176 -128 212 -159 61 -52
109 -82 95 -59 -15 24 -455 339 -455 326z"/>
<path d="M7120 8726 c0 -2 8 -10 18 -17 15 -13 16 -12 3 4 -13 16 -21 21 -21
13z"/>
<path d="M7190 8676 c0 -2 14 -14 30 -26 17 -12 30 -19 30 -16 0 2 -13 14 -30
26 -16 12 -30 19 -30 16z"/>
<path d="M7260 8627 c0 -3 35 -30 78 -61 42 -32 62 -44 44 -28 -40 35 -122 95
-122 89z"/>
<path d="M7240 8516 c0 -2 8 -10 18 -17 15 -13 16 -12 3 4 -13 16 -21 21 -21
13z"/>
<path d="M7280 8486 c0 -2 8 -10 18 -17 15 -13 16 -12 3 4 -13 16 -21 21 -21
13z"/>
<path d="M13080 8073 c0 -4 5 -15 10 -23 8 -13 10 -13 10 2 0 9 -4 20 -10 23
-5 3 -10 3 -10 -2z"/>
<path d="M12593 8032 c-18 -2 -33 -7 -33 -12 0 -5 15 -6 33 -3 28 4 35 1 45
-19 10 -19 11 -20 7 -2 -4 15 1 24 17 32 l23 11 -22 0 c-13 1 -23 -5 -23 -11
0 -8 -3 -9 -8 -3 -4 6 -22 9 -39 7z"/>
<path d="M12433 8013 c-18 -2 -33 -8 -33 -13 0 -9 54 -3 100 11 24 7 24 7 -5
7 -16 -1 -45 -3 -62 -5z"/>
<path d="M11420 7785 c0 -8 2 -15 4 -15 2 0 6 7 10 15 3 8 1 15 -4 15 -6 0
-10 -7 -10 -15z"/>
<path d="M11285 7761 c-3 -5 0 -13 6 -17 9 -5 7 -11 -6 -20 -16 -12 -16 -13 4
-11 15 1 21 8 21 23 0 13 7 24 18 27 11 3 7 5 -10 6 -15 0 -29 -3 -33 -8z"/>
<path d="M11007 7661 c-3 -14 -1 -18 9 -14 8 3 14 11 14 19 0 21 -17 17 -23
-5z"/>
<path d="M10970 7661 c0 -6 -7 -11 -15 -11 -8 0 -15 -5 -15 -10 0 -7 6 -7 19
-1 10 6 21 7 25 4 3 -3 6 -1 6 5 0 6 -4 14 -10 17 -5 3 -10 1 -10 -4z"/>
<path d="M10885 7642 c-7 -4 -1 -17 14 -32 20 -21 23 -22 16 -5 -4 11 -8 26
-8 33 0 14 -7 15 -22 4z"/>
<path d="M10993 7615 c1 -15 8 -20 29 -20 15 0 28 3 28 8 0 4 -11 7 -24 7 -13
0 -26 6 -29 13 -3 6 -5 3 -4 -8z"/>
<path d="M11230 7591 c0 -5 9 -7 20 -4 11 3 20 7 20 9 0 2 -9 4 -20 4 -11 0
-20 -4 -20 -9z"/>
<path d="M10931 7554 c0 -11 3 -14 6 -6 3 7 2 16 -1 19 -3 4 -6 -2 -5 -13z"/>
<path d="M11056 7553 c-13 -4 -15 -7 -7 -12 8 -5 -5 -15 -34 -25 -45 -17 -47
-17 -61 0 -9 11 -13 14 -10 8 3 -6 10 -23 15 -37 10 -24 13 -26 36 -15 16 7
21 14 14 19 -6 4 12 14 42 25 36 12 47 19 35 22 -15 3 -16 6 -5 13 15 9 6 10
-25 2z"/>
<path d="M10975 7520 c-3 -6 1 -7 9 -4 18 7 21 14 7 14 -6 0 -13 -4 -16 -10z"/>
<path d="M11088 7511 c9 -5 -1 -14 -35 -29 -26 -12 -40 -21 -31 -22 11 0 24
-15 33 -37 8 -20 18 -34 20 -31 3 3 -2 21 -10 42 -17 39 -15 41 35 50 14 3 27
5 30 6 9 1 -33 30 -44 30 -6 0 -5 -4 2 -9z"/>
<path d="M10707 7496 c-21 -8 -55 -25 -76 -39 l-38 -25 -21 26 c-12 15 -21 23
-21 17 -1 -5 9 -23 22 -38 l22 -29 45 26 c68 39 111 51 121 35 4 -7 11 -11 14
-7 7 6 -16 48 -25 48 -3 -1 -22 -7 -43 -14z"/>
<path d="M10678 7397 c-16 -6 -28 -15 -28 -19 0 -15 31 -70 36 -65 3 3 -2 19
-10 36 -16 30 -16 31 9 37 14 3 25 10 25 15 0 5 -1 9 -2 8 -2 -1 -15 -6 -30
-12z"/>
<path d="M10620 7358 c0 -9 9 -26 20 -39 l21 -24 -17 35 c-21 43 -24 47 -24
28z"/>
<path d="M10570 7339 c0 -20 31 -69 40 -64 16 10 12 22 -15 49 -14 14 -25 21
-25 15z"/>
<path d="M10514 7278 c-5 -7 -2 -9 9 -5 11 4 14 2 11 -7 -3 -8 -1 -17 5 -21 6
-3 14 1 18 10 9 26 -29 46 -43 23z"/>
<path d="M10590 7189 c0 -5 5 -7 10 -4 6 3 10 8 10 11 0 2 -4 4 -10 4 -5 0
-10 -5 -10 -11z"/>
<path d="M13907 6151 c-4 -17 -3 -21 5 -13 5 5 8 16 6 23 -3 8 -7 3 -11 -10z"/>
<path d="M6735 5020 c33 -33 62 -60 64 -60 3 0 -21 27 -54 60 -33 33 -62 60
-64 60 -3 0 21 -27 54 -60z"/>
<path d="M10376 5036 c-9 -15 -12 -27 -6 -31 5 -3 16 8 25 25 19 36 4 40 -19
6z"/>
<path d="M10310 4933 c-19 -32 -37 -60 -40 -63 -4 -3 -21 -27 -39 -53 -36 -53
-37 -75 -2 -30 29 36 131 191 131 198 0 18 -21 -3 -50 -52z"/>
<path d="M10180 4917 c-17 -25 -31 -57 -25 -57 2 0 13 16 25 36 24 38 24 57 0
21z"/>
<path d="M10111 4866 c-8 -9 -11 -19 -7 -23 9 -9 29 13 24 27 -2 8 -8 7 -17
-4z"/>
<path d="M10391 4768 c-18 -28 -26 -47 -19 -40 14 11 62 92 55 92 -2 0 -19
-23 -36 -52z"/>
<path d="M10459 4773 c-13 -16 -12 -17 4 -4 16 13 21 21 13 21 -2 0 -10 -8
-17 -17z"/>
<path d="M8683 4127 c-45 -29 -84 -54 -87 -57 -2 -3 32 -5 77 -5 79 0 81 0 88
27 4 16 4 30 -1 33 -12 8 -6 35 11 46 8 5 10 8 4 8 -5 0 -47 -24 -92 -52z"/>
<path d="M11590 3839 c0 -5 5 -7 10 -4 6 3 10 8 10 11 0 2 -4 4 -10 4 -5 0
-10 -5 -10 -11z"/>
<path d="M11617 3833 c-11 -10 -8 -20 8 -27 10 -4 15 1 15 14 0 20 -11 26 -23
13z"/>
<path d="M12931 3620 c-12 -36 -9 -38 13 -6 9 14 12 27 7 30 -5 3 -14 -8 -20
-24z"/>
<path d="M9635 3580 c3 -5 8 -10 11 -10 2 0 4 5 4 10 0 6 -5 10 -11 10 -5 0
-7 -4 -4 -10z"/>
<path d="M12880 3530 c-6 -11 -8 -20 -6 -20 3 0 10 9 16 20 6 11 8 20 6 20 -3
0 -10 -9 -16 -20z"/>
<path d="M12845 3479 c-4 -6 -5 -12 -2 -15 2 -3 7 2 10 11 7 17 1 20 -8 4z"/>
<path d="M12525 3440 c3 -5 1 -10 -5 -10 -6 0 -8 -5 -5 -11 4 -6 9 -8 12 -5 3
3 14 1 24 -5 25 -13 26 9 2 27 -21 16 -37 18 -28 4z"/>
<path d="M12515 3370 c3 -5 11 -10 16 -10 6 0 7 5 4 10 -3 6 -11 10 -16 10 -6
0 -7 -4 -4 -10z"/>
</g>
</svg>
